<svg width="127" height="48" viewBox="0 0 127 48" fill="none" xmlns="http://www.w3.org/2000/svg">
<path d="M11.6094 37V34.5H13.1719V25.125H10.9844V22.625H13.1719C13.1719 20.6458 13.8411 19.1094 15.1797 18.0156C16.5234 16.9219 18.5625 16.375 21.2969 16.375C22.0417 16.375 22.6719 16.388 23.1875 16.4141C23.7083 16.4401 24.1719 16.4844 24.5781 16.5469C24.9844 16.6094 25.3229 16.6979 25.5938 16.8125C25.8698 16.9219 26.1042 17.0547 26.2969 17.2109C26.4896 17.3672 26.6615 17.5599 26.8125 17.7891C27.0938 18.2109 27.2344 18.6771 27.2344 19.1875C27.2344 19.8802 26.9896 20.4714 26.5 20.9609C26.0156 21.4453 25.4271 21.6875 24.7344 21.6875C24.0417 21.6875 23.4505 21.4453 22.9609 20.9609C22.4766 20.4714 22.2344 19.8802 22.2344 19.1875C22.2344 19.1771 22.2344 19.1667 22.2344 19.1562C21.8854 18.9688 21.4688 18.875 20.9844 18.875C20.7552 18.875 20.4948 18.9245 20.2031 19.0234C19.9115 19.1172 19.6094 19.2708 19.2969 19.4844C18.9844 19.6927 18.6979 19.9401 18.4375 20.2266C18.1771 20.5078 17.9635 20.8594 17.7969 21.2812C17.6302 21.7031 17.5469 22.151 17.5469 22.625H27.5469V34.5H29.1094V37H21.6094V34.5H23.1719V25.125H17.5469V34.5H19.7344V37H11.6094ZM40.6719 22.3125C41.401 22.3125 42.0391 22.4115 42.5859 22.6094C43.1328 22.8073 43.5807 23.0807 43.9297 23.4297C44.2786 23.7734 44.5599 24.2135 44.7734 24.75C44.9922 25.2812 45.1432 25.8542 45.2266 26.4688C45.3151 27.0781 45.3594 27.776 45.3594 28.5625V34.5H46.9219V37H39.4219V34.5H40.9844V28.25C40.9844 27.4271 40.9089 26.7865 40.7578 26.3281C40.612 25.8698 40.3984 25.5547 40.1172 25.3828C39.8411 25.2109 39.4635 25.125 38.9844 25.125C38.5469 25.125 38.099 25.3099 37.6406 25.6797C37.1823 26.0495 36.7474 26.5651 36.3359 27.2266L36.2969 34.5H37.8594V37H30.3594V34.5H31.9219V25.125H30.3594V22.625H35.2109L36.3047 24.7422C36.4974 24.3932 36.7188 24.0807 36.9688 23.8047C37.224 23.5234 37.526 23.2682 37.875 23.0391C38.2292 22.8047 38.6432 22.625 39.1172 22.5C39.5911 22.375 40.1094 22.3125 40.6719 22.3125ZM58.0391 22.2656C59.2578 22.2656 60.2917 22.5781 61.1406 23.2031C61.9896 23.8281 62.6198 24.7005 63.0312 25.8203C63.4479 26.9401 63.6562 28.2734 63.6562 29.8203C63.6562 30.9505 63.5078 31.9844 63.2109 32.9219C62.9193 33.8594 62.5078 34.651 61.9766 35.2969C61.4505 35.9375 60.8125 36.4349 60.0625 36.7891C59.3177 37.138 58.5 37.3125 57.6094 37.3125C57.1615 37.3125 56.7396 37.2708 56.3438 37.1875C55.9479 37.1094 55.6094 37.0104 55.3281 36.8906C55.0521 36.7708 54.7891 36.6224 54.5391 36.4453C54.2891 36.2682 54.0859 36.1016 53.9297 35.9453C53.7786 35.7891 53.6302 35.6146 53.4844 35.4219V39.5H55.0469V42H47.5469V39.5H49.1094V25.125H47.5469V22.625H52.1875L53.1328 24.4453C53.3359 24.1589 53.5677 23.8984 53.8281 23.6641C54.8594 22.7318 56.263 22.2656 58.0391 22.2656ZM53.4844 32.7734C54.0781 33.8672 54.8854 34.4141 55.9062 34.4141C56.9375 34.4141 57.7031 34.0104 58.2031 33.2031C58.7083 32.3958 58.9609 31.25 58.9609 29.7656C58.9609 29.0677 58.8776 28.4245 58.7109 27.8359C58.5495 27.2422 58.3307 26.75 58.0547 26.3594C57.7839 25.9688 57.4714 25.6667 57.1172 25.4531C56.763 25.2344 56.3932 25.125 56.0078 25.125C55.487 25.125 55.0234 25.2708 54.6172 25.5625C54.2161 25.849 53.8385 26.276 53.4844 26.8438V32.7734ZM64.6094 17.625H70.5469V34.5H72.1094V37H64.6094V34.5H66.1719V20.125H64.6094V17.625ZM86.4844 27.5859V34.5H88.0469V37H83.1797L82.4844 35.375C81.9531 36.1354 81.3359 36.6562 80.6328 36.9375C79.9349 37.2188 78.9583 37.3594 77.7031 37.3594C77.0521 37.3594 76.4453 37.2448 75.8828 37.0156C75.3255 36.7917 74.849 36.4844 74.4531 36.0938C74.0625 35.7031 73.7552 35.2344 73.5312 34.6875C73.3125 34.1406 73.2031 33.5547 73.2031 32.9297C73.2031 31.8516 73.625 30.9583 74.4688 30.25C75.3125 29.5365 76.3906 29.1797 77.7031 29.1797C78.7604 29.1797 79.6354 29.2812 80.3281 29.4844C81.0208 29.6823 81.6146 30 82.1094 30.4375V27.125C82.1094 26.6562 82.0443 26.2656 81.9141 25.9531C81.7891 25.6354 81.599 25.3932 81.3438 25.2266C81.0885 25.0547 80.8021 24.9349 80.4844 24.8672C80.1667 24.7995 79.7865 24.7656 79.3438 24.7656C78.9896 24.7656 78.6693 24.8411 78.3828 24.9922C78.5443 25.3307 78.625 25.6875 78.625 26.0625C78.625 26.7552 78.3802 27.3464 77.8906 27.8359C77.4062 28.3203 76.8177 28.5625 76.125 28.5625C75.4323 28.5625 74.8411 28.3203 74.3516 27.8359C73.8672 27.3464 73.625 26.7552 73.625 26.0625C73.625 25.7083 73.6927 25.375 73.8281 25.0625C73.9688 24.75 74.1615 24.4766 74.4062 24.2422C74.6146 24.0234 74.8307 23.8281 75.0547 23.6562C75.2786 23.4792 75.5599 23.3047 75.8984 23.1328C76.2422 22.9557 76.6146 22.8099 77.0156 22.6953C77.4167 22.5807 77.8958 22.4896 78.4531 22.4219C79.0156 22.349 79.6302 22.3125 80.2969 22.3125C81.1615 22.3125 81.974 22.4401 82.7344 22.6953C83.4948 22.9505 84.151 23.3047 84.7031 23.7578C85.2552 24.2109 85.6901 24.7682 86.0078 25.4297C86.3255 26.0911 86.4844 26.8099 86.4844 27.5859ZM82.1094 33.5312V32.4531C81.7865 32.1458 81.4219 31.888 81.0156 31.6797C80.6146 31.4661 80.2422 31.3594 79.8984 31.3594C79.1589 31.3594 78.638 31.4844 78.3359 31.7344C78.0339 31.9792 77.8828 32.3776 77.8828 32.9297C77.8828 33.5911 78.013 34.0781 78.2734 34.3906C78.5339 34.7031 79.0182 34.8594 79.7266 34.8594C80.1276 34.8594 80.5443 34.7318 80.9766 34.4766C81.4141 34.2161 81.7917 33.901 82.1094 33.5312ZM99.7656 22.3125C100.495 22.3125 101.133 22.4115 101.68 22.6094C102.227 22.8073 102.674 23.0807 103.023 23.4297C103.372 23.7734 103.654 24.2135 103.867 24.75C104.086 25.2812 104.237 25.8542 104.32 26.4688C104.409 27.0781 104.453 27.776 104.453 28.5625V34.5H106.016V37H98.5156V34.5H100.078V28.25C100.078 27.4271 100.003 26.7865 99.8516 26.3281C99.7057 25.8698 99.4922 25.5547 99.2109 25.3828C98.9349 25.2109 98.5573 25.125 98.0781 25.125C97.6406 25.125 97.1927 25.3099 96.7344 25.6797C96.276 26.0495 95.8411 26.5651 95.4297 27.2266L95.3906 34.5H96.9531V37H89.4531V34.5H91.0156V25.125H89.4531V22.625H94.3047L95.3984 24.7422C95.5911 24.3932 95.8125 24.0807 96.0625 23.8047C96.3177 23.5234 96.6198 23.2682 96.9688 23.0391C97.3229 22.8047 97.737 22.625 98.2109 22.5C98.6849 22.375 99.2031 22.3125 99.7656 22.3125Z" fill="black"/>
<path d="M89.2095 45.8211C103.682 44.2567 117.968 36.3387 120.987 24.6429L113.097 28.4379" stroke="black" stroke-width="2.66667" stroke-miterlimit="10" stroke-linecap="round" stroke-linejoin="round"/>
<path d="M125 31.1034L123.13 27.8294L121.261 24.5553" stroke="black" stroke-width="2.66667" stroke-miterlimit="10" stroke-linecap="round" stroke-linejoin="round"/>
</svg>
