<svg width="335" height="262" viewBox="0 0 335 262" fill="none" xmlns="http://www.w3.org/2000/svg">
<g clip-path="url(#clip0_19_342)">
<path d="M50.3176 52.0481C51.389 51.2758 52.4649 50.5042 53.5437 49.7319C76.0602 33.6109 99.0256 18.0026 123.703 6.35071C131.836 2.51103 140.532 -0.948044 149.293 0.234604C172.176 3.3228 183.857 35.0694 205.913 42.5679C217.537 46.5197 229.98 43.0184 241.912 40.4742C253.845 37.9297 267.136 36.6489 277.257 44.1764C289.883 53.5684 292.783 72.8039 301.902 86.3687C312.245 101.753 331.224 111.004 334.53 129.907C336.387 140.53 332.49 151.359 327.591 160.689C322.691 170.018 316.655 178.761 313.556 189.014C309.555 202.253 310.773 217.008 306.278 230.047C302.387 241.332 294.166 250.645 284.141 255.127C271.964 260.571 258.339 258.898 245.238 258.359C217.166 257.204 189.148 261.663 161.06 261.982C118.937 262.461 76.1995 253.283 39.2035 230.708C26.008 222.656 12.6167 211.364 9.47391 194.898C7.74803 185.855 9.39864 176.499 9.93791 167.27C11.1921 145.818 6.41641 123.897 10.8101 102.97C16.0284 78.1148 32.4781 64.914 50.3176 52.0481Z" fill="#F0F3FF"/>
<path d="M239.473 76.2115C222.825 76.2119 206.179 67.0258 196.562 52.0229L197.267 51.4751C207.963 68.1609 227.498 77.5294 245.882 74.7901C252.621 73.7852 257.948 71.358 261.716 67.5759C268.649 60.6164 270.1 47.9294 264.952 39.2942C263.284 36.495 261.022 34.1158 258.835 31.8142C256.92 29.7986 254.939 27.7142 253.327 25.3291C251.721 22.9549 250.482 20.2829 249.283 17.6985C247.969 14.8653 246.609 11.9359 244.78 9.4485C240.875 4.13718 234.839 0.959724 228.633 0.948906C222.412 0.931908 216.381 4.09389 212.461 9.3917C211.755 10.3464 211.103 11.3873 210.472 12.3933C209.631 13.7383 208.76 15.1284 207.732 16.3632C206.134 18.2819 204.183 19.7949 202.296 21.258C201.05 22.2251 199.761 23.2246 198.597 24.3254C192.725 29.8809 189.621 38.5937 190.495 47.0628L189.638 47.1702C188.732 38.3925 191.949 29.3628 198.035 23.6048C199.23 22.4743 200.536 21.4613 201.799 20.4815C203.649 19.0473 205.56 17.564 207.096 15.7211C208.084 14.535 208.937 13.1723 209.762 11.8544C210.402 10.8325 211.063 9.77575 211.792 8.79169C215.867 3.28409 222.149 -0.00115204 228.601 -0.00115204C228.612 -0.00115204 228.623 -0.00115204 228.635 -0.00115204C235.097 0.010437 241.384 3.31963 245.451 8.85079C247.336 11.4155 248.717 14.3897 250.051 17.2662C251.234 19.8154 252.457 22.4519 254.018 24.762C255.588 27.0829 257.542 29.1395 259.432 31.1277C261.653 33.4659 263.951 35.8834 265.674 38.773C271.044 47.7818 269.53 61.0174 262.297 68.2776C258.398 72.1926 252.914 74.7001 245.997 75.7313C243.833 76.0539 241.652 76.2115 239.473 76.2115Z" fill="#FFB850"/>
<path d="M45.4118 103.923C44.9542 103.923 44.584 103.515 44.584 103.011V92.8668C44.584 92.363 44.9542 91.955 45.4118 91.955C45.8695 91.955 46.2397 92.363 46.2397 92.8668V103.011C46.2397 103.515 45.8695 103.923 45.4118 103.923Z" fill="#3F9896"/>
<path d="M50.0185 98.8504H40.8048C40.3468 98.8504 39.9766 98.4424 39.9766 97.939C39.9766 97.4356 40.3468 97.0276 40.8048 97.0276H50.0185C50.4758 97.0276 50.8463 97.4356 50.8463 97.939C50.8463 98.4424 50.4758 98.8504 50.0185 98.8504Z" fill="#3F9896"/>
<path d="M248.955 231.159C248.497 231.159 248.127 230.751 248.127 230.247V220.103C248.127 219.6 248.497 219.192 248.955 219.192C249.412 219.192 249.783 219.6 249.783 220.103V230.247C249.783 230.751 249.412 231.159 248.955 231.159Z" fill="#3F9896"/>
<path d="M253.562 226.087H244.349C243.891 226.087 243.521 225.679 243.521 225.175C243.521 224.672 243.891 224.264 244.349 224.264H253.562C254.02 224.264 254.391 224.672 254.391 225.175C254.391 225.679 254.02 226.087 253.562 226.087Z" fill="#3F9896"/>
<path d="M283.723 93.1133C283.266 93.1133 282.895 92.7053 282.895 92.2019V87.1297C282.895 86.6267 283.266 86.2183 283.723 86.2183C284.181 86.2183 284.551 86.6267 284.551 87.1297V92.2019C284.551 92.7053 284.181 93.1133 283.723 93.1133Z" fill="#3F9896"/>
<path d="M286.026 90.5772H281.42C280.962 90.5772 280.592 90.1692 280.592 89.6654C280.592 89.1624 280.962 88.754 281.42 88.754H286.026C286.484 88.754 286.854 89.1624 286.854 89.6654C286.854 90.1692 286.484 90.5772 286.026 90.5772Z" fill="#3F9896"/>
<path d="M172.284 238.231C172.247 237.767 172.126 237.304 171.891 236.917C171.645 236.513 171.283 236.203 170.883 235.998C169.821 235.455 168.48 235.708 167.612 236.56C167.831 235.302 167.34 233.905 166.372 233.18C166.006 232.907 165.579 232.723 165.139 232.699C164.715 232.676 164.293 232.799 163.912 233.001C162.82 233.582 162.06 234.877 162.079 236.212C162.098 237.546 162.923 238.837 164.073 239.256C163.541 239.404 162.962 239.562 162.489 239.867C162.015 240.172 161.608 240.657 161.5 241.249C161.393 241.842 161.656 242.53 162.17 242.744C162.395 242.838 162.644 242.836 162.884 242.81C163.564 242.736 164.223 242.463 164.788 242.04C164.748 242.791 164.874 243.553 165.164 244.234C165.267 244.475 165.393 244.71 165.582 244.876C166.012 245.252 166.684 245.147 167.091 244.741C167.498 244.336 167.667 243.702 167.662 243.098C167.656 242.494 167.482 241.866 167.325 241.287C168.242 242.159 169.672 242.277 170.721 241.61C171.771 240.943 172.392 239.561 172.284 238.231Z" fill="#FFB850"/>
<path d="M167.853 235.715C167.807 235.687 167.781 235.627 167.795 235.567C168.058 234.365 168.301 233.14 168.518 231.925C168.531 231.852 168.595 231.805 168.662 231.819C168.728 231.834 168.771 231.904 168.758 231.977C168.54 233.195 168.296 234.424 168.032 235.63C168.017 235.702 167.95 235.747 167.885 235.729C167.873 235.726 167.863 235.721 167.853 235.715Z" fill="#1B0102"/>
<path d="M168.424 235.602C168.418 235.598 168.413 235.594 168.408 235.589C168.355 235.543 168.346 235.458 168.388 235.4C168.848 234.767 169.372 234.187 169.945 233.677C169.997 233.631 170.075 233.64 170.116 233.698C170.159 233.755 170.151 233.84 170.098 233.886C169.54 234.384 169.028 234.95 168.579 235.569C168.541 235.621 168.475 235.634 168.424 235.602Z" fill="#1B0102"/>
<path d="M220.791 212.057L191.181 55.4604L57.2961 89.0577L83.4676 245.885L220.791 212.057Z" fill="white"/>
<path d="M301.276 95.0289C298.866 94.3729 296.587 92.9136 295.128 90.7017C294.627 89.9421 294.218 89.0701 294.167 88.1331C294.115 87.1958 294.486 86.1897 295.232 85.735C295.786 85.3969 296.47 85.4008 297.08 85.5916C297.689 85.7825 298.242 86.1438 298.786 86.5011C298.011 85.6956 297.488 84.4387 297.52 83.2654C297.552 82.092 298.059 80.9441 298.876 80.1907C299.352 79.7525 299.953 79.44 300.572 79.4744C300.947 79.4952 301.308 79.6409 301.644 79.8263C302.929 80.5361 303.917 81.8729 304.285 83.4033C304.398 82.1576 304.895 80.7509 305.988 80.4047C307.066 80.0636 308.207 80.9877 308.625 82.1345C309.042 83.2816 308.919 84.5701 308.767 85.7941C308.501 87.9299 308.145 90.1156 307.117 91.9496C306.087 93.7837 303.177 95.5463 301.276 95.0289Z" fill="#FFB850"/>
<path d="M304.121 93.6983C304.072 93.6983 304.022 93.6824 303.98 93.6492C300.819 91.2082 298.399 87.6451 297.166 83.6173C297.123 83.4763 297.192 83.3237 297.32 83.2765C297.448 83.2282 297.586 83.3047 297.629 83.4454C298.83 87.3654 301.185 90.833 304.261 93.2091C304.372 93.2945 304.398 93.4622 304.32 93.5839C304.273 93.6585 304.197 93.6983 304.121 93.6983Z" fill="#1B0102"/>
<path d="M304.636 84.7057C304.53 84.7057 304.432 84.6284 304.401 84.5098C304.018 83.0184 303.233 81.6237 302.192 80.5824C302.092 80.4824 302.085 80.312 302.175 80.2022C302.266 80.0921 302.421 80.0848 302.52 80.1841C303.628 81.2922 304.463 82.7766 304.872 84.3634C304.909 84.5063 304.833 84.6551 304.703 84.6953C304.681 84.7026 304.658 84.7057 304.636 84.7057Z" fill="#1B0102"/>
<path d="M305.039 91.6552C305.026 91.6552 305.013 91.6544 305 91.6521C304.867 91.6285 304.776 91.4906 304.797 91.3434C305.043 89.667 305.045 87.9654 304.806 86.2863C304.785 86.1395 304.876 86.0019 305.01 85.9788C305.14 85.9575 305.267 86.0556 305.289 86.2028C305.536 87.938 305.533 89.6963 305.28 91.4292C305.261 91.5613 305.157 91.6552 305.039 91.6552Z" fill="#1B0102"/>
<path d="M301.88 94.5506C301.863 94.5506 301.846 94.5487 301.829 94.5448C300.609 94.2597 299.438 93.6739 298.442 92.8502C298.334 92.761 298.313 92.5921 298.393 92.4735C298.475 92.3549 298.628 92.3309 298.736 92.4198C299.676 93.1968 300.78 93.7497 301.93 94.0186C302.062 94.0495 302.147 94.192 302.119 94.3377C302.094 94.4637 301.992 94.5506 301.88 94.5506Z" fill="#1B0102"/>
<path d="M307.446 87.8584C307.443 87.8584 307.441 87.8584 307.437 87.858C307.302 87.8534 307.197 87.7286 307.201 87.5802L307.249 86.0073C307.253 85.8621 307.362 85.7473 307.493 85.7473C307.495 85.7473 307.498 85.7473 307.501 85.7477C307.636 85.7523 307.741 85.8767 307.737 86.0255L307.69 87.598C307.686 87.7437 307.577 87.8584 307.446 87.8584Z" fill="#1B0102"/>
<path d="M36.878 118.493C36.6748 114.075 37.0278 114.891 34.0396 111.935C38.0519 111.711 37.311 112.1 39.9957 108.81C40.1992 113.227 39.8462 112.411 42.8344 115.367C38.8222 115.591 39.5633 115.202 36.878 118.493Z" fill="#FFB850"/>
<path d="M41.0818 133.671C40.7958 127.458 41.2923 128.605 37.0889 124.447C42.7326 124.132 41.6903 124.68 45.467 120.052C45.753 126.265 45.2561 125.118 49.4596 129.276C43.8159 129.591 44.8582 129.044 41.0818 133.671Z" fill="#FFB850"/>
<path d="M30.3556 128.619C30.2128 125.513 30.461 126.087 28.3594 124.008C31.1812 123.85 30.6599 124.124 32.5485 121.81C32.6914 124.916 32.4431 124.343 34.5446 126.422C31.7228 126.579 32.2439 126.305 30.3556 128.619Z" fill="#FFB850"/>
<path d="M88.3991 243.923L282.633 197.332L251.127 38.1213C250.026 32.5554 245.017 29.0132 239.961 30.226L64.0641 72.4179C59.0086 73.6307 55.7909 79.146 56.8921 84.7119L88.3991 243.923ZM284.415 198.592L87.2544 245.885L55.429 85.0628C54.152 78.609 57.8824 72.2135 63.7454 70.8071L239.642 28.6148C245.504 27.2092 251.313 31.3163 252.59 37.7705L284.415 198.592Z" fill="#EAD5CC"/>
<path d="M254.143 45.5228L57.0908 92.7892L55.0779 82.6174C53.7973 76.1466 57.5239 69.7585 63.4009 68.3486L239.17 26.1876C245.047 24.7778 250.849 28.8802 252.13 35.351L254.143 45.5228Z" fill="#F45A56"/>
<path d="M227.136 40.5375C227.517 42.4624 226.434 44.3567 224.716 44.769C222.998 45.1808 221.297 43.9541 220.916 42.0293C220.535 40.1044 221.619 38.2097 223.336 37.7978C225.054 37.386 226.755 38.6123 227.136 40.5375Z" fill="white"/>
<path d="M216.194 43.1621C216.575 45.0869 215.491 46.9817 213.774 47.3935C212.056 47.8054 210.355 46.5791 209.974 44.6538C209.593 42.729 210.677 40.8346 212.394 40.4224C214.112 40.0105 215.813 41.2372 216.194 43.1621Z" fill="white"/>
<path d="M238.078 37.9126C238.459 39.8378 237.376 41.7321 235.658 42.144C233.941 42.5563 232.24 41.3296 231.859 39.4047C231.478 37.4798 232.562 35.5851 234.279 35.1733C235.996 34.761 237.697 35.9877 238.078 37.9126Z" fill="white"/>
<path d="M283.525 197.962L218.041 213.67L187.909 61.4104L253.394 45.7025L283.525 197.962Z" fill="#EAD5CC"/>
<path d="M97.051 151.054L81.6314 154.753C81.2267 154.85 80.8284 154.568 80.74 154.123C80.6519 153.678 80.9081 153.239 81.3124 153.142L96.7324 149.443C97.1366 149.346 97.5353 149.628 97.6234 150.073C97.7115 150.518 97.4553 150.957 97.051 151.054Z" fill="#EAD5CC"/>
<path d="M121.56 159.702L106.14 163.401C105.736 163.498 105.337 163.216 105.249 162.771C105.161 162.326 105.417 161.887 105.821 161.79L121.241 158.091C121.645 157.994 122.044 158.276 122.132 158.721C122.22 159.166 121.964 159.605 121.56 159.702Z" fill="#EAD5CC"/>
<path d="M112.134 147.436L102.778 149.68C102.374 149.777 101.975 149.495 101.887 149.05C101.799 148.605 102.055 148.166 102.46 148.07L111.815 145.825C112.219 145.728 112.618 146.01 112.706 146.455C112.794 146.9 112.538 147.339 112.134 147.436Z" fill="#EAD5CC"/>
<path d="M133.133 142.399L116.378 146.418C115.973 146.515 115.575 146.234 115.487 145.788C115.399 145.343 115.654 144.904 116.059 144.808L132.815 140.788C133.219 140.691 133.618 140.973 133.706 141.418C133.794 141.863 133.538 142.302 133.133 142.399Z" fill="#EAD5CC"/>
<path d="M135.878 156.268L126.281 158.57C125.877 158.667 125.478 158.385 125.39 157.94C125.302 157.494 125.558 157.056 125.962 156.959L135.559 154.657C135.963 154.56 136.362 154.841 136.45 155.287C136.538 155.732 136.282 156.171 135.878 156.268Z" fill="#EAD5CC"/>
<path d="M101.132 164.602L84.3762 168.621C83.9715 168.718 83.5732 168.437 83.4851 167.992C83.3971 167.546 83.6525 167.107 84.0572 167.01L100.813 162.991C101.217 162.894 101.616 163.176 101.704 163.621C101.792 164.067 101.536 164.505 101.132 164.602Z" fill="#EAD5CC"/>
<path d="M107.759 155.749L83.0038 161.687C82.5992 161.785 82.2009 161.503 82.1128 161.058C82.0247 160.612 82.2806 160.174 82.6848 160.077L107.44 154.139C107.844 154.042 108.243 154.323 108.331 154.768C108.419 155.214 108.163 155.652 107.759 155.749Z" fill="#EAD5CC"/>
<path d="M122.67 152.173L112.17 154.691C111.766 154.788 111.367 154.507 111.279 154.061C111.191 153.616 111.447 153.177 111.851 153.08L122.351 150.562C122.755 150.465 123.154 150.747 123.242 151.192C123.33 151.637 123.074 152.076 122.67 152.173Z" fill="#EAD5CC"/>
<path d="M134.506 149.334L126.869 151.165C126.465 151.262 126.066 150.981 125.978 150.535C125.89 150.09 126.146 149.651 126.551 149.554L134.187 147.723C134.591 147.626 134.99 147.908 135.078 148.353C135.166 148.798 134.91 149.237 134.506 149.334Z" fill="#EAD5CC"/>
<path d="M101.293 172.487L85.8727 176.186C85.4684 176.283 85.0698 176.001 84.9817 175.556C84.8936 175.111 85.1498 174.672 85.5541 174.575L100.974 170.876C101.378 170.779 101.777 171.061 101.865 171.506C101.953 171.952 101.697 172.39 101.293 172.487Z" fill="#EAD5CC"/>
<path d="M125.801 181.135L110.381 184.833C109.977 184.93 109.579 184.649 109.49 184.203C109.402 183.758 109.658 183.319 110.063 183.222L125.483 179.524C125.887 179.427 126.285 179.709 126.374 180.154C126.462 180.599 126.205 181.037 125.801 181.135Z" fill="#EAD5CC"/>
<path d="M116.375 168.869L107.02 171.114C106.615 171.211 106.217 170.929 106.129 170.484C106.041 170.038 106.297 169.6 106.701 169.503L116.056 167.259C116.461 167.162 116.859 167.443 116.947 167.888C117.035 168.334 116.779 168.772 116.375 168.869Z" fill="#EAD5CC"/>
<path d="M137.375 163.832L120.619 167.852C120.215 167.949 119.816 167.667 119.728 167.222C119.64 166.776 119.896 166.338 120.3 166.241L137.056 162.221C137.46 162.124 137.859 162.406 137.947 162.851C138.035 163.297 137.779 163.735 137.375 163.832Z" fill="#EAD5CC"/>
<path d="M140.119 177.7L130.522 180.002C130.118 180.099 129.72 179.817 129.631 179.372C129.543 178.927 129.799 178.488 130.203 178.391L139.8 176.089C140.205 175.992 140.603 176.274 140.691 176.719C140.779 177.165 140.523 177.603 140.119 177.7Z" fill="#EAD5CC"/>
<path d="M105.373 186.035L88.6174 190.054C88.2127 190.151 87.8144 189.869 87.7264 189.424C87.6383 188.979 87.8938 188.54 88.2984 188.443L105.054 184.424C105.459 184.327 105.857 184.609 105.945 185.054C106.033 185.499 105.777 185.938 105.373 186.035Z" fill="#EAD5CC"/>
<path d="M112 177.182L87.2453 183.12C86.8407 183.217 86.4424 182.935 86.3543 182.49C86.2662 182.045 86.522 181.606 86.9263 181.509L111.681 175.571C112.086 175.474 112.484 175.756 112.572 176.201C112.66 176.646 112.404 177.085 112 177.182Z" fill="#EAD5CC"/>
<path d="M126.911 173.605L116.411 176.124C116.007 176.221 115.608 175.939 115.52 175.494C115.432 175.049 115.688 174.61 116.093 174.513L126.593 171.995C126.997 171.898 127.395 172.179 127.484 172.624C127.572 173.07 127.315 173.508 126.911 173.605Z" fill="#EAD5CC"/>
<path d="M138.747 170.766L131.111 172.598C130.706 172.695 130.308 172.413 130.22 171.968C130.132 171.523 130.387 171.084 130.792 170.987L138.428 169.155C138.833 169.058 139.231 169.34 139.319 169.785C139.407 170.231 139.151 170.669 138.747 170.766Z" fill="#EAD5CC"/>
<path d="M105.643 194.472L90.2233 198.17C89.819 198.267 89.4204 197.985 89.3323 197.54C89.2442 197.095 89.5 196.656 89.9047 196.559L105.324 192.861C105.729 192.764 106.127 193.045 106.215 193.491C106.303 193.936 106.048 194.375 105.643 194.472Z" fill="#EAD5CC"/>
<path d="M130.152 203.118L114.732 206.817C114.327 206.914 113.929 206.632 113.841 206.187C113.753 205.742 114.009 205.303 114.413 205.206L129.833 201.508C130.237 201.411 130.636 201.692 130.724 202.137C130.812 202.583 130.556 203.021 130.152 203.118Z" fill="#EAD5CC"/>
<path d="M120.726 190.853L111.371 193.098C110.966 193.195 110.568 192.913 110.48 192.468C110.391 192.023 110.647 191.584 111.052 191.487L120.407 189.243C120.811 189.145 121.21 189.427 121.298 189.872C121.386 190.318 121.13 190.756 120.726 190.853Z" fill="#EAD5CC"/>
<path d="M141.725 185.816L124.969 189.836C124.565 189.933 124.167 189.651 124.079 189.206C123.99 188.76 124.246 188.322 124.65 188.225L141.407 184.205C141.811 184.108 142.209 184.39 142.298 184.835C142.386 185.281 142.13 185.719 141.725 185.816Z" fill="#EAD5CC"/>
<path d="M144.47 199.684L134.873 201.986C134.468 202.083 134.07 201.801 133.982 201.356C133.894 200.911 134.15 200.472 134.554 200.375L144.151 198.073C144.555 197.976 144.954 198.258 145.042 198.703C145.13 199.149 144.874 199.587 144.47 199.684Z" fill="#EAD5CC"/>
<path d="M109.723 208.019L92.9677 212.038C92.5634 212.135 92.1647 211.853 92.0767 211.408C91.9886 210.963 92.2448 210.524 92.649 210.427L109.405 206.408C109.809 206.311 110.208 206.593 110.296 207.038C110.384 207.483 110.128 207.922 109.723 208.019Z" fill="#EAD5CC"/>
<path d="M116.35 199.166L91.5954 205.104C91.1911 205.201 90.7924 204.919 90.7043 204.474C90.6163 204.029 90.8724 203.59 91.2767 203.493L116.032 197.555C116.436 197.458 116.834 197.74 116.923 198.185C117.011 198.63 116.755 199.069 116.35 199.166Z" fill="#EAD5CC"/>
<path d="M131.261 195.589L120.761 198.108C120.357 198.205 119.958 197.923 119.87 197.478C119.782 197.033 120.038 196.594 120.443 196.497L130.943 193.978C131.347 193.881 131.746 194.163 131.834 194.608C131.922 195.054 131.666 195.492 131.261 195.589Z" fill="#EAD5CC"/>
<path d="M143.098 192.75L135.461 194.582C135.057 194.679 134.658 194.397 134.57 193.952C134.482 193.507 134.738 193.068 135.142 192.971L142.779 191.14C143.183 191.043 143.582 191.324 143.67 191.769C143.758 192.215 143.502 192.653 143.098 192.75Z" fill="#EAD5CC"/>
<path d="M178.588 118.663L78.484 142.675C77.7674 142.847 77.0599 142.346 76.9037 141.557L76.0415 137.2C75.8853 136.411 76.3394 135.632 77.056 135.46L177.161 111.448C177.877 111.276 178.585 111.777 178.741 112.566L179.603 116.923C179.76 117.712 179.305 118.491 178.588 118.663Z" fill="#EAD5CC"/>
<path d="M189.265 188.165L156.033 196.136C154.64 196.47 153.266 195.499 152.963 193.966L142.537 141.282C142.234 139.75 143.117 138.237 144.508 137.903L177.741 129.932C179.132 129.598 180.507 130.57 180.81 132.102L191.236 184.786C191.539 186.318 190.656 187.831 189.265 188.165Z" fill="#FFB850"/>
<path d="M271.167 95.379C275.247 115.994 263.374 136.347 244.65 140.839C225.925 145.33 207.438 132.26 203.359 111.644C199.279 91.0289 211.151 70.6758 229.876 66.1843C248.601 61.6929 267.087 74.7639 271.167 95.379Z" fill="#8DDBBF"/>
<path d="M251.6 144.738C233.676 149.038 215.917 136.482 212.012 116.748C208.107 97.0149 219.511 77.4626 237.435 73.1636C245.184 71.3048 253.294 72.5566 260.268 76.6887C260.548 76.8541 260.652 77.2374 260.502 77.5445C260.353 77.8524 260.002 77.9668 259.725 77.8015C252.99 73.8119 245.162 72.6033 237.68 74.398C220.375 78.5491 209.363 97.4267 213.133 116.479C216.904 135.532 234.05 147.655 251.355 143.504C268.66 139.353 279.672 120.476 275.902 101.423C274.993 96.8336 273.308 92.5698 270.891 88.749C270.71 88.4631 270.773 88.069 271.034 87.8693C271.294 87.6726 271.651 87.7402 271.833 88.0269C274.337 91.9844 276.082 96.4013 277.023 101.154C280.928 120.887 269.524 140.439 251.6 144.738Z" fill="#1C0102"/>
<path d="M246.072 123.818C245.407 123.978 244.704 123.844 244.126 123.445L218.511 105.754C218.242 105.569 218.161 105.179 218.329 104.884C218.499 104.589 218.852 104.499 219.12 104.684L244.735 122.374C245.085 122.616 245.493 122.675 245.895 122.566C246.293 122.448 246.619 122.162 246.811 121.759L272.113 68.9248C272.261 68.6142 272.609 68.4971 272.889 68.6605C273.169 68.8232 273.277 69.2053 273.129 69.5136L247.826 122.349C247.488 123.055 246.893 123.578 246.193 123.786C246.152 123.798 246.112 123.809 246.072 123.818Z" fill="#1C0102"/>
<path d="M176.475 101.115L74.5116 125.572L69.3982 99.7321L171.361 75.2743L176.475 101.115Z" fill="#FFB850"/>
<path d="M80.4799 105.947C80.3806 105.947 80.2915 105.871 80.2697 105.76C80.2441 105.632 80.3178 105.506 80.434 105.477L161.693 85.9861C161.808 85.9591 161.925 86.039 161.95 86.1673C161.976 86.2956 161.902 86.4219 161.785 86.4501L80.5259 105.941C80.5105 105.945 80.4954 105.947 80.4799 105.947Z" fill="#1B0102"/>
<path d="M82.3311 115.298C82.2314 115.298 82.1423 115.223 82.1202 115.112C82.0949 114.983 82.1686 114.857 82.2851 114.829L163.544 95.3377C163.659 95.3102 163.775 95.3902 163.801 95.5189C163.826 95.6471 163.752 95.7739 163.636 95.8017L82.3771 115.293C82.3613 115.297 82.3462 115.298 82.3311 115.298Z" fill="#1B0102"/>
<path d="M81.357 110.376C81.2577 110.376 81.1682 110.301 81.1464 110.19C81.1208 110.061 81.1945 109.935 81.311 109.907L117.689 101.181C117.807 101.154 117.921 101.235 117.945 101.363C117.97 101.491 117.897 101.618 117.781 101.645L81.403 110.371C81.3872 110.375 81.3721 110.376 81.357 110.376Z" fill="#1B0102"/>
<path d="M126.238 99.6108C126.139 99.6108 126.05 99.535 126.028 99.4238C126.003 99.2955 126.076 99.1692 126.192 99.1413L162.57 90.4157C162.684 90.3883 162.801 90.4687 162.827 90.5973C162.852 90.7256 162.779 90.8519 162.662 90.8801L126.284 99.6054C126.269 99.6092 126.254 99.6108 126.238 99.6108Z" fill="#1B0102"/>
<path d="M299.647 220.703C298.461 215.878 298.306 210.75 299.198 205.849C300.052 201.159 301.833 196.74 302.998 192.132C305.401 182.629 305.127 172.559 304.227 162.744C303.972 159.97 303.596 157.012 301.917 154.925C300.238 152.837 296.378 152.363 294.903 154.63C294.395 152.411 292.758 150.55 290.761 149.919C288.763 149.287 286.521 150.331 285.021 151.914C284.772 149.074 283.107 146.435 280.777 145.187C278.446 143.939 275.632 144.692 273.449 146.229C272.901 142.237 272.352 138.244 271.803 134.252C271.175 129.677 270.542 125.085 269.344 120.651C268.533 117.653 267.115 114.372 264.378 113.537C261.662 112.71 258.771 114.844 257.538 117.633C256.305 120.421 256.35 123.668 256.553 126.762C257.009 133.742 258.136 140.669 259.909 147.39C261.771 154.447 264.374 161.523 263.92 168.855C263.834 170.251 263.616 171.696 262.884 172.84C260.998 175.788 256.69 175.235 254.121 173C251.552 170.764 250.027 167.404 247.822 164.739C245.617 162.074 242.04 160.068 239.118 161.693C236.61 163.088 235.679 166.697 236.259 169.724C236.838 172.751 238.578 175.327 240.289 177.782C246.313 186.428 252.538 194.905 258.956 203.2C261.075 205.94 263.237 208.694 264.723 211.899C266.21 215.103 266.976 218.862 266.13 222.338L299.647 220.703Z" fill="#FF926C"/>
<path d="M240.627 178.506C240.589 178.506 240.549 178.495 240.514 178.472C240.412 178.403 240.379 178.256 240.442 178.142C245.188 169.576 238.335 162.424 238.265 162.352C238.177 162.262 238.172 162.111 238.253 162.014C238.335 161.918 238.472 161.911 238.56 162.002C238.633 162.075 245.742 169.496 240.813 178.392C240.772 178.466 240.7 178.506 240.627 178.506Z" fill="#1C0102"/>
<path d="M262.029 124.573C260.498 124.573 259.344 124.119 259.322 124.11C259.21 124.064 259.152 123.927 259.194 123.803C259.235 123.679 259.361 123.616 259.472 123.661C259.511 123.676 263.385 125.195 266.228 122.47C266.318 122.383 266.456 122.394 266.534 122.494C266.613 122.593 266.604 122.744 266.513 122.831C265.077 124.208 263.401 124.573 262.029 124.573Z" fill="#1C0102"/>
<path d="M273.682 154.233C273.565 154.233 273.469 154.131 273.465 154.002L273.232 146.237C273.228 146.105 273.322 145.995 273.442 145.99C273.558 145.99 273.663 146.089 273.666 146.222L273.899 153.986C273.903 154.118 273.809 154.228 273.69 154.233C273.687 154.233 273.684 154.233 273.682 154.233Z" fill="#1C0102"/>
<path d="M285.021 156.48C284.901 156.48 284.804 156.372 284.804 156.24V151.914C284.804 151.782 284.901 151.675 285.021 151.675C285.141 151.675 285.238 151.782 285.238 151.914V156.24C285.238 156.372 285.141 156.48 285.021 156.48Z" fill="#1C0102"/>
<path d="M294.904 159.101C294.783 159.101 294.686 158.994 294.686 158.861V154.63C294.686 154.497 294.783 154.39 294.904 154.39C295.024 154.39 295.121 154.497 295.121 154.63V158.861C295.121 158.994 295.024 159.101 294.904 159.101Z" fill="#1C0102"/>
<path d="M270.607 159.818C269.578 159.818 268.741 160.74 268.741 161.873C268.741 163.005 269.578 163.927 270.607 163.927C271.636 163.927 272.473 163.005 272.473 161.873C272.473 160.74 271.636 159.818 270.607 159.818ZM270.607 164.405C269.338 164.405 268.307 163.269 268.307 161.873C268.307 160.476 269.338 159.34 270.607 159.34C271.876 159.34 272.907 160.476 272.907 161.873C272.907 163.269 271.876 164.405 270.607 164.405Z" fill="#1C0102"/>
<path d="M280.678 161.16C279.732 161.16 278.963 162.007 278.963 163.049C278.963 164.09 279.732 164.938 280.678 164.938C281.624 164.938 282.394 164.09 282.394 163.049C282.394 162.007 281.624 161.16 280.678 161.16ZM280.678 165.416C279.492 165.416 278.528 164.354 278.528 163.049C278.528 161.743 279.492 160.681 280.678 160.681C281.864 160.681 282.829 161.743 282.829 163.049C282.829 164.354 281.864 165.416 280.678 165.416Z" fill="#1C0102"/>
<path d="M290.434 163.472C290.289 163.472 290.144 163.494 290.001 163.54C289.604 163.666 289.275 163.956 289.076 164.354C288.876 164.753 288.83 165.213 288.945 165.651C289.06 166.088 289.323 166.45 289.684 166.669C290.047 166.889 290.464 166.941 290.862 166.814C291.681 166.552 292.155 165.605 291.918 164.702C291.803 164.266 291.541 163.904 291.178 163.685C290.947 163.543 290.692 163.472 290.434 163.472ZM290.429 167.36C290.099 167.36 289.772 167.269 289.475 167.088C289.011 166.807 288.674 166.343 288.527 165.783C288.38 165.224 288.44 164.634 288.695 164.123C288.951 163.613 289.371 163.242 289.881 163.08C290.389 162.918 290.924 162.984 291.388 163.266C291.852 163.547 292.188 164.01 292.336 164.57C292.639 165.726 292.032 166.938 290.982 167.273C290.8 167.332 290.614 167.36 290.429 167.36Z" fill="#1C0102"/>
<path d="M299.386 166.244C299.275 166.244 299.163 166.261 299.052 166.296C298.416 166.499 298.049 167.233 298.232 167.932C298.417 168.633 299.084 169.037 299.719 168.834C300.027 168.736 300.282 168.512 300.437 168.202C300.592 167.893 300.628 167.536 300.539 167.197C300.387 166.62 299.906 166.244 299.386 166.244ZM299.383 169.366C299.111 169.366 298.842 169.29 298.596 169.141C298.214 168.909 297.937 168.527 297.815 168.065C297.694 167.604 297.743 167.117 297.954 166.696C298.164 166.275 298.511 165.97 298.932 165.836C299.795 165.561 300.705 166.111 300.956 167.065C301.078 167.526 301.028 168.012 300.818 168.434C300.607 168.854 300.26 169.16 299.84 169.294C299.69 169.342 299.536 169.366 299.383 169.366Z" fill="#1C0102"/>
<path d="M299.811 237.58H265.846C263.989 237.58 262.483 235.922 262.483 233.877V222.481C262.483 220.436 263.989 218.778 265.846 218.778H299.811C301.668 218.778 303.174 220.436 303.174 222.481V233.877C303.174 235.922 301.668 237.58 299.811 237.58Z" fill="#F45A56"/>
<path d="M297.28 220.73C297.21 220.73 297.14 220.733 297.069 220.738L263.179 223.227C261.441 223.355 260.123 225.016 260.238 226.928L260.927 238.299C261.043 240.211 262.548 241.671 264.288 241.536L298.177 239.047C299.019 238.985 299.789 238.566 300.344 237.867C300.899 237.168 301.174 236.273 301.118 235.347L300.429 223.977C300.318 222.142 298.927 220.73 297.28 220.73ZM264.076 241.996C262.216 241.996 260.644 240.402 260.518 238.329L259.829 226.959C259.698 224.797 261.188 222.921 263.152 222.777L297.041 220.288C299.005 220.145 300.707 221.784 300.839 223.946L301.528 235.316C301.591 236.364 301.28 237.375 300.653 238.165C300.025 238.955 299.155 239.429 298.205 239.498L264.316 241.987C264.235 241.993 264.156 241.996 264.076 241.996Z" fill="#362B29"/>
<path d="M8.58496 136.821C8.58496 136.821 18.2825 130.147 24.0942 135.052L22.8523 138.838H13.1582L8.58496 136.821Z" fill="#5E4789"/>
<path d="M92.6748 195.982C92.6748 195.982 98.9389 206.362 105.59 205.971L106.559 196.805L99.9075 191.716L92.6748 195.982Z" fill="#5E4789"/>
<path d="M62.2316 110.499C62.9233 109.252 64.101 108.422 65.323 107.852C67.1418 107.003 69.6791 106.887 70.6687 108.77C74.0064 107.228 78.0555 106.988 81.0998 109.144C84.1442 111.3 85.5777 116.255 83.4921 119.512C86.9327 118.746 90.6996 120.629 92.53 123.927C94.3601 127.225 94.1928 131.699 92.2107 134.888C95.0494 135.528 97.7424 137.304 99.2578 140.023C100.773 142.741 100.941 146.423 99.3483 149.088C100.683 149.254 101.796 150.383 102.386 151.711C102.976 153.039 103.126 154.547 103.2 156.023C103.375 159.535 103.077 163.349 101.007 166.028C99.2388 168.315 96.4847 169.361 93.8057 169.926C84.4684 171.896 74.3566 168.958 67.1846 162.088C64.9425 159.941 62.9552 157.389 61.7852 154.382C60.5633 151.241 60.286 147.761 60.1902 144.347C60.0649 139.896 60.2246 135.415 61.0293 131.052C61.5961 127.981 62.4811 124.972 62.784 121.856C62.9482 120.161 62.9373 118.447 62.7534 116.754C62.679 116.072 62.6769 115.168 62.299 114.601C61.9315 114.049 61.7178 113.492 61.6887 112.796C61.655 111.996 61.8533 111.181 62.2316 110.499Z" fill="#1C0102"/>
<path d="M83.2467 174.298C80.9723 180.322 75.5413 188.933 79.5012 195.129C80.5806 196.818 82.6912 197.298 82.355 199.329C81.6685 203.48 78.7912 206.897 75.3984 208.857C72.0056 210.818 68.132 211.512 64.3149 211.885C60.1332 212.295 55.9234 212.355 51.7333 212.065C48.1696 211.817 46.8308 213.629 43.9517 211.303C41.0727 208.978 40.1603 204.274 41.9174 200.852C46.5244 191.879 33.448 177.546 35.0197 167.384C36.1789 159.889 40.6691 153.617 45.008 147.703C46.9508 145.054 49.0578 142.277 51.9944 141.211C53.5855 140.634 55.2921 140.613 56.9671 140.598C59.277 140.577 61.5871 140.556 63.897 140.535C66.2833 140.514 68.6977 140.496 71.0177 141.108C76.739 142.62 81.2078 147.907 83.3811 153.927C85.5541 159.947 85.5053 168.316 83.2467 174.298Z" fill="#9D83C6"/>
<path d="M54.5777 142.451C54.9536 140.434 58.5362 133.303 59.4346 131.497C57.98 131.527 56.5208 131.233 55.1698 130.638C54.9887 130.559 54.802 130.468 54.6784 130.301C54.5142 130.08 54.4939 129.773 54.4928 129.487C54.4798 126.857 55.4438 124.339 56.6075 122.043C58.4569 118.393 60.858 115.082 63.682 112.289C64.9752 111.01 67.3239 112.739 68.4062 114.237C69.5292 115.791 70.0696 117.825 69.9507 119.807C69.8317 121.789 69.0674 123.705 67.8714 125.192C67.5664 125.571 67.2366 126.18 67.5871 126.507C67.7391 126.648 67.9598 126.651 68.1567 126.62C68.6641 126.541 69.1642 126.29 69.6699 126.384C70.3202 126.505 70.7901 127.195 70.9038 127.911C71.0178 128.626 70.8445 129.358 70.6241 130.043C70.435 130.629 70.1553 131.261 69.6229 131.469C68.9182 131.744 68.1858 131.14 67.4394 131.103C66.7207 131.067 66.0504 131.579 65.6535 132.24C65.2569 132.9 65.0885 133.692 64.9569 134.47C64.6951 136.019 64.5526 140.445 64.5291 142.02C64.421 142.119 53.8864 146.163 54.5777 142.451Z" fill="#FF926C"/>
<path d="M20.7118 128.336C20.1926 127.239 20.6762 125.894 21.2979 124.864C21.9195 123.834 22.7064 122.836 22.8348 121.607C22.9425 120.578 22.5393 119.524 21.8583 118.81C21.1772 118.095 20.2438 117.708 19.3054 117.639C18.5237 117.582 17.6553 117.784 17.1824 118.471C16.7094 119.159 16.9288 120.386 17.6934 120.573C17.9089 120.625 18.1374 120.593 18.35 120.658C18.7941 120.794 19.059 121.343 19.0259 121.849C18.9924 122.355 18.7198 122.808 18.3896 123.162C17.8367 123.754 17.0435 124.137 16.2896 123.958C15.5356 123.779 14.9125 122.915 15.0946 122.09C15.3186 121.076 16.5548 120.504 16.52 119.461C16.5034 118.959 16.1614 118.521 15.7468 118.312C15.3323 118.103 14.8579 118.09 14.4044 118.143C13.4481 118.255 12.4951 118.669 11.8396 119.443C11.184 120.218 10.8756 121.383 11.1984 122.38C10.7212 120.785 10.7806 118.981 11.403 117.448C11.6782 116.77 12.0526 116.146 12.3315 115.469C12.6105 114.793 12.7934 114.034 12.6534 113.307C12.5133 112.581 11.9805 111.911 11.3082 111.848C10.9721 111.816 10.6391 111.933 10.3285 112.078C9.05951 112.667 7.97973 113.764 7.40206 115.141C6.82439 116.517 6.77024 118.162 7.31349 119.556C7.3383 119.62 7.3823 119.695 7.44494 119.684C7.50748 119.673 7.46361 119.531 7.42414 119.586C6.93434 118.755 6.75473 117.785 6.5753 116.814C6.39601 115.843 5.8175 114.783 4.91809 114.762C4.59102 114.754 4.27287 114.892 3.99553 115.083C2.73794 115.951 2.32861 117.809 2.52957 119.428C3.06557 123.744 6.80411 126.587 8.77301 130.365C9.74836 132.236 10.2827 134.338 10.9208 136.378C11.3385 137.713 11.0696 139.074 11.9394 140.112C12.4869 140.766 13.3084 141.037 14.0983 141.223C16.2782 141.734 18.7847 141.707 20.4552 140.082C22.135 138.448 22.4627 135.686 22.2172 133.234C22.0465 131.53 21.431 129.856 20.7118 128.336Z" fill="#FF926C"/>
<path d="M55.3264 140.71C51.6963 147.319 49.7827 155.057 49.868 162.78C56.6171 157.95 62.2467 150.739 65.1658 142.48C65.3188 142.045 65.4683 141.592 65.4402 141.127C65.4167 140.738 65.2711 140.374 65.1279 140.018C64.6162 138.749 64.1042 137.479 63.5926 136.21C63.5224 136.035 63.4462 135.852 63.3076 135.738C62.9805 135.467 62.5201 135.702 62.172 135.938C60.0022 137.413 56.6462 138.307 55.3264 140.71Z" fill="#FF926C"/>
<path d="M41.683 152.362C39.7512 155.372 37.0855 158.644 34.459 160.661C34.0156 161.001 33.5409 161.331 33.0053 161.412C31.6064 161.624 30.5096 160.128 29.8948 158.728C28.9359 156.545 28.8459 156.293 28.2838 153.949C26.4101 146.135 25.968 142.866 24.0942 135.052C19.6765 138.305 13.5874 138.797 8.58496 136.821C10.1991 145.1 9.67092 149.084 11.3739 157.341C12.0566 160.651 13.0458 163.861 13.9738 167.097C20.2584 189.015 30.2916 185.617 41.3683 183.663C42.2835 183.502 43.2503 183.25 43.8897 182.511C44.4491 181.864 44.6625 180.952 44.827 180.077C46.3371 172.059 44.7902 159.802 41.683 152.362Z" fill="#9D83C6"/>
<path d="M89.4165 256.861C92.8441 247.123 95.0697 234.77 94.9655 224.327C94.9202 219.792 94.4998 215.128 92.6079 211.1C91.4751 208.689 89.8598 206.601 88.2585 204.536C85.1411 200.517 82.0235 196.498 78.9058 192.478C73.0628 194.844 67.2836 196.674 61.1739 197.993C55.0641 199.313 48.6554 199.542 42.6759 197.631C38.63 206.697 37.0989 216.65 37.0641 226.75C37.0294 236.85 38.4019 246.886 39.8418 256.861H89.4165Z" fill="#EAD5CC"/>
<path d="M96.7433 192.64C95.1319 193.369 95.5119 199.159 93.7759 199.317C92.9399 199.393 92.1507 198.913 91.4555 198.397C89.0923 196.646 86.9902 194.232 84.2112 193.542C82.4751 193.111 80.6601 193.414 78.9251 193.851C77.734 194.151 76.5103 194.539 75.5976 195.433C74.6851 196.327 74.1816 197.862 74.7378 199.06C75.2944 200.257 77.1034 200.566 77.7295 199.411C76.4251 199.755 74.8427 200.522 74.6543 201.984C74.4971 203.204 75.5109 204.304 76.604 204.568C77.6976 204.832 78.8272 204.487 79.9025 204.144C79.3722 204.388 78.4756 204.999 78.0681 205.445C77.6607 205.891 77.4189 206.581 77.6277 207.17C77.852 207.801 78.4938 208.113 79.0922 208.271C80.5643 208.658 82.153 208.489 83.5304 207.798C84.1793 207.472 84.7906 207.031 85.4861 206.857C86.1817 206.683 87.0201 206.858 87.3963 207.525C86.7934 207.78 86.1712 207.989 85.5676 208.244C84.7562 208.587 83.9097 208.956 83.3423 209.682C82.7748 210.407 82.6043 211.605 83.2093 212.293C83.781 212.942 84.7646 212.865 85.5096 212.486C86.2547 212.106 86.8839 211.485 87.6374 211.126C88.6505 210.643 89.8584 210.684 90.8424 211.236C91.4713 211.589 92.0149 212.139 92.6932 212.355C93.7987 212.707 94.955 212.094 95.9348 211.43C99.0844 209.294 101.815 206.415 103.887 203.041C104.754 201.631 105.518 199.786 104.77 198.296C104.429 197.616 103.824 197.146 103.203 196.779C101.856 195.983 98.1576 192.001 96.7433 192.64Z" fill="#FF926C"/>
<path d="M72.0173 141.415C77.7178 143.067 84.4175 144.44 89.4628 147.797C96.4773 152.463 101.499 159.963 106.081 167.444C107.473 169.718 108.854 172.033 109.732 174.599C111.744 180.48 110.923 187.03 109.881 193.209C109.239 197.022 105.59 205.971 105.59 205.971C105.59 205.971 104.132 203.403 103.897 202.775C102.399 198.773 96.5769 195.451 92.6749 195.982C92.4759 192.322 94.3594 188.124 94.1604 184.464C94.1176 183.681 93.3592 182.875 93.7028 182.187C94.0614 181.469 92.6749 178.14 88.6065 176.386C81.5458 173.344 75.4329 169.072 72.0969 166.27C66.069 161.206 69.1151 149.127 72.0173 141.415Z" fill="#9D83C6"/>
<path d="M59.4347 131.497C59.4347 131.497 62.3562 131.249 64.1642 130.609C64.1642 130.609 60.8174 135.457 57.155 136.161L59.4347 131.497Z" fill="#E45A53"/>
<path d="M11.1626 137.601C11.1626 137.601 16.8537 139.021 22.1852 136.237C22.1852 136.237 22.3095 134.828 22.2171 133.234C22.2171 133.234 17.4426 136.239 11.1626 137.601Z" fill="#E45A53"/>
<path d="M95.3198 196.127C95.3198 196.127 101.923 197.422 103.959 202.923C103.959 202.923 103.259 204.266 101.972 205.783C101.972 205.783 100.58 198.76 95.3198 196.127Z" fill="#E45A53"/>
<path d="M56.9382 125.113C56.9182 125.113 56.8975 125.11 56.8768 125.103C56.7627 125.066 56.6978 124.934 56.7315 124.808C56.8203 124.48 56.7508 124.096 56.5543 123.831C56.5255 123.792 56.4939 123.753 56.4623 123.715C56.3016 123.517 56.1012 123.271 56.1591 122.936C56.2342 122.502 56.6855 122.366 56.8333 122.322C57.0301 122.262 57.2284 122.209 57.4271 122.156C57.8376 122.045 58.2623 121.931 58.6574 121.766C59.3112 121.491 59.786 121.109 60.0682 120.629C60.1334 120.519 60.2679 120.488 60.3668 120.559C60.4668 120.631 60.4949 120.778 60.4303 120.888C60.0966 121.454 59.5523 121.899 58.8104 122.209C58.3907 122.385 57.9527 122.503 57.5295 122.617C57.3348 122.669 57.14 122.722 56.9473 122.78C56.7252 122.847 56.5988 122.932 56.5831 123.025C56.5662 123.122 56.6515 123.235 56.7834 123.398C56.8196 123.442 56.8557 123.486 56.8884 123.531C57.1772 123.92 57.2754 124.461 57.1453 124.944C57.1175 125.047 57.0315 125.113 56.9382 125.113Z" fill="#1C0102"/>
<path d="M67.0828 120.601C66.8831 120.601 66.7035 120.447 66.661 120.224C66.4806 119.274 65.8311 118.436 65.0071 118.091C64.7849 117.997 64.673 117.723 64.7579 117.477C64.8432 117.232 65.092 117.11 65.3145 117.203C66.4059 117.661 67.266 118.77 67.5057 120.029C67.5541 120.285 67.4046 120.537 67.1716 120.591C67.1418 120.598 67.1123 120.601 67.0828 120.601Z" fill="#1C0102"/>
<path d="M61.9329 116.559C61.8914 116.559 61.8493 116.552 61.8079 116.538C61.3875 116.398 60.9516 116.325 60.5119 116.321C60.2736 116.319 60.0824 116.104 60.0845 115.842C60.0866 115.581 60.2793 115.371 60.5161 115.371C60.5172 115.371 60.5182 115.371 60.5196 115.371C61.0411 115.376 61.5584 115.463 62.0571 115.629C62.2859 115.705 62.4147 115.97 62.3452 116.221C62.2894 116.427 62.1181 116.559 61.9329 116.559Z" fill="#1C0102"/>
<path d="M59.2363 131.561C58.6516 131.561 58.0677 131.527 57.489 131.46C57.3707 131.446 57.2847 131.33 57.2974 131.199C57.31 131.069 57.4111 130.973 57.5343 130.988C59.7557 131.245 62.0546 130.992 64.1844 130.255C64.3013 130.217 64.4199 130.285 64.4546 130.41C64.4908 130.535 64.4273 130.669 64.3143 130.708C62.6828 131.272 60.9555 131.561 59.2363 131.561Z" fill="#1C0102"/>
<path d="M58.3566 125.686C58.757 125.389 59.0862 124.876 59.5687 124.876C59.9508 124.875 60.272 125.225 60.413 125.616C60.7008 126.416 60.3583 127.397 59.707 127.871C59.3111 128.16 58.8258 128.27 58.3562 128.228C57.9372 128.19 57.5024 128.042 57.1792 127.738C56.9297 127.503 56.7219 127.182 56.637 126.829C56.5717 126.562 56.5907 126.239 56.8335 126.089C57.0157 125.977 57.2395 125.999 57.4399 125.994C57.7059 125.986 57.9628 125.924 58.1997 125.788C58.2537 125.757 58.3064 125.723 58.3566 125.686Z" fill="white"/>
<path d="M59.4264 129.186C59.3334 129.186 59.2481 129.12 59.2197 129.018C59.1853 128.892 59.2496 128.76 59.3633 128.721C59.6293 128.632 59.8637 128.43 60.0058 128.168C60.0669 128.055 60.1992 128.019 60.302 128.086C60.4041 128.153 60.4378 128.299 60.3767 128.412C60.1802 128.775 59.8567 129.053 59.4892 129.176C59.4678 129.183 59.4471 129.186 59.4264 129.186Z" fill="#1C0102"/>
<path d="M59.5217 153.858C59.4771 153.858 59.4322 153.843 59.3929 153.811C59.2974 153.733 59.2771 153.584 59.348 153.479C61.8985 149.685 64.7888 145.386 65.3054 140.355C65.3191 140.224 65.4282 140.132 65.5444 140.146C65.6626 140.161 65.7479 140.279 65.7346 140.409C65.205 145.566 62.1498 150.11 59.6954 153.761C59.6529 153.825 59.5873 153.858 59.5217 153.858Z" fill="#1C0102"/>
<path d="M53.7658 198.501C53.6819 198.501 53.6023 198.447 53.5675 198.357C51.2528 192.386 48.8594 186.213 47.4385 179.782C45.9284 172.951 46.346 167.823 48.7155 164.107C50.3361 161.563 52.8456 159.85 55.06 158.338C55.1607 158.269 55.2945 158.302 55.3569 158.414C55.4197 158.525 55.3885 158.672 55.2874 158.741C53.1081 160.229 50.6386 161.916 49.0682 164.379C46.7749 167.978 46.3783 172.979 47.8571 179.67C49.2703 186.062 51.6563 192.218 53.9644 198.171C54.0107 198.291 53.9599 198.431 53.8504 198.482C53.8226 198.495 53.7939 198.501 53.7658 198.501Z" fill="#1C0102"/>
<path d="M50.0785 162.823C49.9694 162.823 49.876 162.732 49.8648 162.61C49.3616 157.245 50.2049 151.832 52.3031 146.957C52.3547 146.839 52.4831 146.789 52.5905 146.844C52.6982 146.9 52.7442 147.042 52.6933 147.16C50.6284 151.957 49.7985 157.282 50.2936 162.561C50.3059 162.692 50.2199 162.808 50.1013 162.822C50.0936 162.823 50.0862 162.823 50.0785 162.823Z" fill="#1C0102"/>
<path d="M78.7616 157.241C78.6791 157.241 78.6005 157.189 78.5647 157.101C77.2715 153.926 76.7823 150.423 77.1497 146.968C77.1634 146.838 77.2666 146.743 77.3894 146.76C77.5073 146.775 77.5919 146.893 77.5786 147.023C77.2199 150.393 77.6972 153.81 78.9581 156.907C79.0072 157.026 78.9584 157.167 78.85 157.221C78.8209 157.234 78.791 157.241 78.7616 157.241Z" fill="#1C0102"/>
<path d="M92.877 179.658C92.8276 179.658 92.7777 179.639 92.737 179.601C91.4674 178.408 90.0464 177.436 88.5129 176.71C88.2075 176.566 87.8973 176.431 87.5878 176.296C86.8529 175.976 86.0928 175.647 85.3987 175.184C83.2138 173.731 82.0596 171.274 81.4763 169.468C80.7386 167.188 80.4874 164.761 80.2445 162.415C80.2312 162.285 80.3161 162.167 80.4347 162.152C80.5506 162.136 80.66 162.23 80.6737 162.361C80.9134 164.681 81.1615 167.08 81.8823 169.309C82.4428 171.041 83.5461 173.397 85.6222 174.778C86.2851 175.219 87.0277 175.542 87.7461 175.854C88.0602 175.991 88.3739 176.127 88.6831 176.274C90.2566 177.019 91.7148 178.016 93.0171 179.239C93.1076 179.325 93.1185 179.474 93.0413 179.574C92.9985 179.63 92.9378 179.658 92.877 179.658Z" fill="#1C0102"/>
<path d="M96.2317 181.106C95.9976 181.106 95.7639 181.087 95.5327 181.048C95.4151 181.029 95.3337 180.908 95.3516 180.778C95.3695 180.648 95.4793 180.559 95.5972 180.579C96.929 180.801 98.3654 180.306 99.3441 179.287C99.4308 179.197 99.5673 179.201 99.6495 179.297C99.7312 179.392 99.7274 179.542 99.641 179.632C98.7374 180.572 97.4786 181.106 96.2317 181.106Z" fill="#1C0102"/>
<path d="M96.1684 179.231C96.1305 179.231 96.0926 179.221 96.0575 179.198C95.9554 179.13 95.922 178.984 95.9834 178.872L97.1471 176.74C97.2086 176.627 97.3419 176.592 97.4433 176.658C97.5451 176.726 97.5788 176.872 97.517 176.985L96.3537 179.116C96.313 179.191 96.2414 179.231 96.1684 179.231Z" fill="#1C0102"/>
<path d="M43.4474 156.814C43.3993 156.814 43.3502 156.796 43.3098 156.759C43.2186 156.676 43.2053 156.526 43.2818 156.425C44.7437 154.482 45.7099 152.034 46.0015 149.531C46.0166 149.401 46.1271 149.311 46.2429 149.325C46.3612 149.342 46.4447 149.461 46.4293 149.591C46.1275 152.182 45.1273 154.717 43.6137 156.728C43.5709 156.785 43.5095 156.814 43.4474 156.814Z" fill="#1C0102"/>
<path d="M43.3167 193.639C43.2346 193.639 43.1564 193.587 43.1206 193.5C41.1185 188.636 39.0484 183.607 38.0724 178.255C37.3042 174.042 36.9459 167.852 39.6011 162.289C39.6565 162.172 39.7878 162.128 39.8924 162.189C39.9976 162.25 40.0387 162.394 39.9829 162.51C37.3863 167.95 37.7408 174.024 38.4953 178.161C39.4618 183.461 41.5214 188.465 43.5133 193.303C43.5628 193.423 43.5143 193.564 43.4059 193.618C43.3771 193.632 43.3469 193.639 43.3167 193.639Z" fill="#1C0102"/>
<path d="M29.7118 166.217C29.6886 166.217 29.6652 166.213 29.6421 166.204C29.5293 166.161 29.4691 166.027 29.5078 165.902C29.7796 165.025 30.1831 164.212 30.7067 163.486C30.7813 163.383 30.9169 163.367 31.0099 163.448C31.103 163.529 31.1187 163.679 31.0446 163.781C30.5517 164.464 30.172 165.229 29.9159 166.056C29.8855 166.154 29.8016 166.217 29.7118 166.217Z" fill="#1C0102"/>
<path d="M32.5014 172.811C32.4259 172.811 32.3527 172.767 32.313 172.689C31.6542 171.391 31.8551 169.884 32.0494 168.427C32.2347 167.039 32.4095 165.727 31.91 164.579C31.8586 164.461 31.9039 164.319 32.0114 164.262C32.1181 164.205 32.2475 164.255 32.2992 164.374C32.8557 165.653 32.6628 167.099 32.4761 168.497C32.2841 169.938 32.1024 171.3 32.6897 172.457C32.748 172.572 32.7108 172.716 32.6067 172.78C32.5734 172.801 32.5371 172.811 32.5014 172.811Z" fill="#1C0102"/>
<path d="M57.0779 204.39C51.9252 204.39 46.7749 203.605 41.8598 202.031C41.7457 201.995 41.6794 201.863 41.7127 201.737C41.7461 201.612 41.865 201.537 41.9801 201.575C51.9954 204.781 63.0017 204.691 72.971 201.32C73.0847 201.281 73.2057 201.352 73.2401 201.477C73.2752 201.602 73.2113 201.735 73.0973 201.773C67.9414 203.518 62.5083 204.39 57.0779 204.39Z" fill="#1C0102"/>
<path d="M57.9301 256.011C57.8136 256.011 57.7181 255.909 57.7146 255.78C57.5929 250.775 57.2868 245.711 56.8057 240.729C56.2088 234.546 55.1339 228.248 51.341 224.07C51.2568 223.978 51.2568 223.827 51.341 223.735C51.4252 223.642 51.5617 223.642 51.646 223.735C55.5336 228.017 56.6292 234.41 57.2349 240.679C57.7171 245.673 58.0238 250.75 58.1463 255.767C58.1487 255.898 58.055 256.007 57.9364 256.011C57.934 256.011 57.9319 256.011 57.9301 256.011Z" fill="#1C0102"/>
<path d="M53.121 232.37C53.0638 232.37 53.007 232.346 52.9641 232.296L49.4808 228.24C49.399 228.145 49.4029 227.994 49.4892 227.904C49.5759 227.813 49.7124 227.819 49.7942 227.914L53.2779 231.97C53.3596 232.065 53.3554 232.215 53.2691 232.305C53.2277 232.349 53.1743 232.37 53.121 232.37Z" fill="#1C0102"/>
<path d="M87.5408 220.041C86.0202 220.041 84.4101 219.763 82.7804 219.198C75.7551 216.76 70.3725 210.03 69.386 202.453C69.3691 202.323 69.4513 202.203 69.5688 202.184C69.6839 202.165 69.7959 202.256 69.8134 202.386C70.7764 209.786 76.0393 216.36 82.9102 218.745C87.1463 220.213 91.235 219.693 93.8495 217.35C93.9418 217.268 94.0776 217.282 94.1527 217.385C94.2281 217.486 94.2137 217.636 94.1214 217.719C92.4103 219.252 90.1029 220.041 87.5408 220.041Z" fill="#1C0102"/>
<path d="M85.8569 255.571C85.8428 255.571 85.8292 255.57 85.8151 255.567C85.6979 255.542 85.6221 255.418 85.6442 255.289C87.5561 244.361 89.3697 231.703 86.6679 219.771C86.6395 219.644 86.7096 219.515 86.8251 219.483C86.9416 219.451 87.0574 219.529 87.0865 219.656C89.8094 231.682 87.9884 244.401 86.0681 255.379C86.0481 255.493 85.9579 255.571 85.8569 255.571Z" fill="#1C0102"/>
<path d="M52.1453 198.764C49.8874 198.764 47.6256 198.62 45.3667 198.33C45.2484 198.315 45.1638 198.197 45.1772 198.067C45.1912 197.936 45.2996 197.843 45.4165 197.859C52.1407 198.72 58.892 198.288 65.4811 196.573C65.5983 196.544 65.7137 196.622 65.7404 196.75C65.7678 196.877 65.6962 197.005 65.5804 197.035C61.1558 198.187 56.6586 198.764 52.1453 198.764Z" fill="#1C0102"/>
<path d="M91.2211 208.239C91.2046 208.239 91.1878 208.237 91.1706 208.233C89.8879 207.893 88.5677 207.708 87.2475 207.684C87.1285 207.683 87.0331 207.574 87.0352 207.443C87.0373 207.313 87.1331 207.21 87.2507 207.21C87.2521 207.21 87.2535 207.21 87.2542 207.21C88.6067 207.234 89.9581 207.423 91.2716 207.771C91.3874 207.802 91.4587 207.93 91.4306 208.057C91.4067 208.166 91.3187 208.239 91.2211 208.239Z" fill="#1C0102"/>
<path d="M78.6436 205.202C78.5819 205.202 78.5212 205.173 78.4783 205.117C78.4015 205.017 78.4138 204.867 78.5043 204.783C80.0049 203.393 82.0705 202.663 84.3165 202.712C86.1564 202.756 88.0995 203.305 90.2574 204.388C90.3655 204.443 90.4129 204.584 90.3637 204.703C90.3146 204.823 90.1862 204.875 90.0777 204.821C87.9753 203.764 86.0873 203.229 84.3073 203.186C82.1701 203.133 80.2025 203.831 78.7822 205.146C78.7419 205.183 78.6928 205.202 78.6436 205.202Z" fill="#1C0102"/>
<path d="M75.4213 200.632C75.3329 200.632 75.2501 200.572 75.2185 200.475C75.1785 200.351 75.2364 200.215 75.3483 200.171C77.9182 199.156 80.6021 198.528 83.3254 198.305C83.9016 198.257 84.5708 198.22 85.2183 198.37C85.8138 198.51 86.3641 198.8 86.8957 199.08C87.4779 199.387 88.0272 199.678 88.6272 199.784C88.7445 199.804 88.8248 199.926 88.8062 200.056C88.7866 200.186 88.6736 200.274 88.5588 200.252C87.897 200.135 87.2934 199.817 86.7094 199.509C86.177 199.227 85.6738 198.962 85.1292 198.835C84.5382 198.697 83.9037 198.734 83.3573 198.779C80.6727 198.998 78.0277 199.617 75.4943 200.618C75.4704 200.627 75.4455 200.632 75.4213 200.632Z" fill="#1C0102"/>
<path d="M82.9874 211.642C82.8839 211.642 82.7923 211.559 82.7748 211.442C82.7558 211.313 82.8355 211.191 82.953 211.17C83.7577 211.026 84.3869 210.085 84.2729 209.197C84.2557 209.067 84.3378 208.946 84.4557 208.929C84.5761 208.908 84.6831 209 84.7 209.13C84.8474 210.28 84.0637 211.453 83.0222 211.639C83.0106 211.641 82.999 211.642 82.9874 211.642Z" fill="#1C0102"/>
<path d="M78.4165 207.625C78.3217 207.625 78.2343 207.555 78.2084 207.448C78.1775 207.321 78.2456 207.191 78.3607 207.157C78.8569 207.011 79.2857 206.571 79.4538 206.037C79.6216 205.503 79.5314 204.866 79.224 204.413C79.1527 204.308 79.1724 204.16 79.2671 204.081C79.3622 204.003 79.4973 204.023 79.5696 204.129C79.9662 204.713 80.0778 205.503 79.862 206.193C79.6447 206.882 79.1127 207.428 78.473 207.616C78.454 207.622 78.4351 207.625 78.4165 207.625Z" fill="#1C0102"/>
<path d="M75.4179 203.584C75.3214 203.584 75.2336 203.511 75.2087 203.404C75.1803 203.277 75.2501 203.148 75.3656 203.116C75.9545 202.953 76.4665 202.469 76.7019 201.852C76.9374 201.235 76.8928 200.493 76.5861 199.916C76.5258 199.803 76.5602 199.657 76.663 199.591C76.7665 199.526 76.8981 199.563 76.9585 199.676C77.3326 200.38 77.3866 201.284 77.0992 202.036C76.8125 202.787 76.1889 203.377 75.4709 203.576C75.453 203.581 75.4354 203.584 75.4179 203.584Z" fill="#1C0102"/>
<path d="M75.5181 198.336C75.4125 198.336 75.3202 198.251 75.3048 198.133C75.2876 198.003 75.3697 197.883 75.4876 197.864C76.0993 197.768 76.6664 197.339 76.9675 196.745C77.2689 196.151 77.303 195.394 77.0563 194.77C77.0092 194.65 77.0594 194.51 77.1686 194.458C77.277 194.406 77.4051 194.46 77.4525 194.581C77.7511 195.338 77.7093 196.256 77.3444 196.976C76.9791 197.697 76.2909 198.217 75.549 198.335C75.5385 198.336 75.5283 198.336 75.5181 198.336Z" fill="#1C0102"/>
<path d="M13.1585 125.516C13.1042 125.516 13.0497 125.493 13.0078 125.448C12.3238 124.714 11.5567 123.813 11.054 122.697C10.5191 121.51 10.3882 120.267 10.6859 119.197C10.7209 119.072 10.8411 119 10.9555 119.039C11.0694 119.078 11.1332 119.211 11.0983 119.336C10.8333 120.29 10.9548 121.408 11.4402 122.486C11.9145 123.538 12.651 124.402 13.3092 125.108C13.3944 125.2 13.3961 125.35 13.3129 125.444C13.2708 125.492 13.2146 125.516 13.1585 125.516Z" fill="#1C0102"/>
<path d="M10.2292 126.382C10.159 126.382 10.0902 126.344 10.049 126.275C8.3886 123.497 6.99147 120.958 6.70728 118.011C6.69468 117.88 6.78049 117.763 6.89893 117.749C7.02091 117.738 7.12373 117.83 7.13609 117.961C7.41024 120.802 8.78066 123.289 10.4091 126.014C10.4747 126.123 10.4472 126.271 10.3475 126.343C10.3109 126.369 10.2699 126.382 10.2292 126.382Z" fill="#1C0102"/>
<path d="M17.8937 133.086C17.8406 133.086 17.7872 133.064 17.7454 133.021C16.5846 131.812 15.9661 130.707 15.7991 129.542C15.7795 129.404 15.7661 129.264 15.7528 129.124C15.7189 128.768 15.6873 128.433 15.5483 128.153C15.2485 127.549 14.5274 127.364 13.9501 127.388C13.6055 127.403 13.2683 127.474 12.9111 127.549C12.5839 127.617 12.2458 127.688 11.9017 127.713C11.7846 127.718 11.6803 127.621 11.6728 127.49C11.6653 127.36 11.7554 127.247 11.8743 127.238C12.1915 127.216 12.5016 127.151 12.8303 127.082C13.187 127.007 13.5562 126.93 13.9327 126.913C14.6338 126.88 15.5324 127.131 15.9269 127.925C16.1073 128.289 16.1451 128.688 16.1819 129.074C16.1944 129.206 16.2067 129.338 16.2252 129.468C16.3765 130.524 16.9539 131.543 18.0419 132.676C18.1285 132.766 18.1323 132.916 18.0504 133.011C18.0081 133.061 17.9509 133.086 17.8937 133.086Z" fill="#1C0102"/>
<path d="M14.9484 119.867C14.7851 119.867 14.6244 119.829 14.4694 119.737C14.0306 119.477 13.8916 118.927 13.8068 118.371C13.7869 118.241 13.8664 118.119 13.9836 118.097C14.1034 118.076 14.2124 118.162 14.2323 118.292C14.2992 118.729 14.3987 119.156 14.6742 119.319C14.9665 119.493 15.3632 119.321 15.7489 119.11C15.855 119.052 15.985 119.1 16.0382 119.217C16.0911 119.335 16.0478 119.477 15.941 119.536C15.6147 119.714 15.276 119.867 14.9484 119.867Z" fill="#1C0102"/>
<path d="M17.5379 119.219C17.4183 119.219 17.2997 119.201 17.1844 119.165C17.0696 119.13 17.0032 118.999 17.0355 118.873C17.0676 118.746 17.1877 118.672 17.3016 118.709C17.5736 118.793 17.8922 118.72 18.1551 118.513C18.418 118.307 18.5844 117.999 18.6004 117.688C18.6068 117.557 18.7013 117.453 18.8279 117.465C18.9467 117.472 19.0377 117.584 19.0309 117.715C19.0076 118.174 18.7798 118.606 18.4056 118.9C18.1386 119.11 17.8355 119.219 17.5379 119.219Z" fill="#1C0102"/>
<path d="M10.206 113.521C9.98628 113.521 9.7635 113.458 9.57842 113.337C9.34593 113.184 9.19022 112.954 9.1399 112.688C9.11537 112.56 9.1905 112.434 9.30687 112.407C9.42328 112.379 9.53743 112.463 9.562 112.591C9.59474 112.763 9.70879 112.87 9.79888 112.928C9.97736 113.045 10.2218 113.078 10.4194 113.013C10.8267 112.878 11.1345 112.46 11.3572 112.111C11.4256 112.003 11.5601 111.977 11.6577 112.052C11.7552 112.128 11.7788 112.276 11.7105 112.383C11.4477 112.795 11.0779 113.291 10.5442 113.468C10.4363 113.504 10.3214 113.521 10.206 113.521Z" fill="#1C0102"/>
<path d="M3.10468 117.56C2.89988 117.56 2.68671 117.445 2.61269 117.205C2.57417 117.08 2.63462 116.946 2.74744 116.903C2.86136 116.861 2.98322 116.928 3.02106 117.052C3.02599 117.068 3.08713 117.098 3.14402 117.079C3.23778 117.049 3.32346 116.949 3.40228 116.845C3.74896 116.391 4.01163 115.85 4.16229 115.28C4.19545 115.154 4.31375 115.082 4.42959 115.118C4.54403 115.155 4.60973 115.287 4.57639 115.413C4.40931 116.046 4.11758 116.646 3.73278 117.151C3.61655 117.304 3.46987 117.468 3.2663 117.535C3.21503 117.551 3.16006 117.56 3.10468 117.56Z" fill="#1C0102"/>
<path d="M5.54343 129.598C3.95669 128.639 2.14377 127.932 1.04025 126.352C0.332357 125.339 -0.00637462 124.022 0.113573 122.751C0.191573 121.926 0.605563 120.987 1.35568 120.912C2.03082 120.844 2.57503 121.521 2.86127 122.198C3.14763 122.874 3.32214 123.645 3.81947 124.153C4.17329 124.513 4.64483 124.69 5.09052 124.893C7.3821 125.934 9.31321 127.907 10.4278 130.345C10.7305 131.007 10.9851 131.74 10.9559 132.493C10.9367 132.991 10.8535 133.823 10.2277 133.673C9.69854 133.546 9.30374 132.792 8.93979 132.394C8.46603 131.877 7.96142 131.393 7.43025 130.949C6.83268 130.448 6.20185 129.996 5.54343 129.598Z" fill="#FF926C"/>
<path d="M8.55801 127.652C8.50456 127.652 8.4508 127.63 8.409 127.587C7.26163 126.381 5.93946 125.425 4.47937 124.746C4.3696 124.695 4.31833 124.555 4.36479 124.434C4.41097 124.314 4.53668 124.258 4.64747 124.308C6.15563 125.01 7.52167 125.997 8.70702 127.243C8.7931 127.333 8.79626 127.484 8.714 127.578C8.67178 127.627 8.6149 127.652 8.55801 127.652Z" fill="#1C0102"/>
<path d="M0.215506 123.979C0.102412 123.979 0.0074138 123.883 0.000422551 123.756C-0.00697994 123.625 0.083769 123.513 0.20262 123.505C0.444435 123.488 0.597281 123.123 0.654307 122.814C0.735323 122.375 0.745606 121.926 0.684877 121.483C0.666783 121.354 0.747662 121.233 0.865828 121.213C0.983306 121.192 1.09352 121.282 1.11121 121.412C1.17988 121.911 1.16823 122.414 1.07693 122.909C0.985226 123.405 0.714078 123.946 0.228803 123.979C0.224416 123.979 0.219892 123.979 0.215506 123.979Z" fill="#1C0102"/>
<path d="M64.0575 121.53C63.7634 121.997 63.3051 122.207 63.0342 122C62.7633 121.793 62.7822 121.247 63.0763 120.78C63.3704 120.313 63.8287 120.103 64.1 120.31C64.3709 120.517 64.3519 121.064 64.0575 121.53Z" fill="#1C0102"/>
<path d="M59.4395 120.105C59.1861 120.508 58.7913 120.689 58.5576 120.51C58.3239 120.332 58.34 119.861 58.5937 119.459C58.8475 119.057 59.2426 118.875 59.476 119.054C59.7097 119.232 59.6932 119.703 59.4395 120.105Z" fill="#1C0102"/>
<path d="M92.0337 144.448C92.0197 144.448 92.0056 144.447 91.9916 144.444C91.8747 144.418 91.7986 144.294 91.8218 144.165C92.5071 140.321 89.8334 135.602 86.4237 134.638L86.1496 134.56L86.2904 134.29C87.2993 132.349 87.4221 129.86 86.6178 127.631C85.871 125.559 84.3806 123.786 82.4217 122.641C81.8402 122.301 80.3863 121.601 79.4472 122.45C79.3542 122.533 79.2191 122.518 79.1436 122.417C79.0682 122.315 79.0815 122.166 79.1735 122.082C80.3154 121.053 81.9672 121.837 82.6242 122.221C84.6733 123.42 86.2342 125.279 87.0189 127.456C87.8345 129.718 87.7478 132.237 86.7961 134.26C90.3387 135.454 92.9654 140.216 92.2446 144.257C92.2243 144.37 92.1341 144.448 92.0337 144.448Z" fill="#584848"/>
<path d="M81.7921 136.352C81.7815 136.352 81.7714 136.351 81.7612 136.35C81.6429 136.331 81.5612 136.211 81.578 136.081C81.777 134.555 81.6208 132.987 81.1264 131.545C80.8028 130.602 80.3947 129.941 79.8784 129.525C79.2594 129.025 78.4407 128.935 77.8872 129.304C77.7862 129.371 77.6532 129.336 77.5911 129.224C77.5293 129.112 77.5619 128.965 77.6641 128.897C78.3729 128.424 79.3654 128.522 80.1336 129.141C80.7189 129.613 81.1758 130.345 81.5299 131.378C82.05 132.894 82.2142 134.544 82.0051 136.148C81.9896 136.267 81.8973 136.352 81.7921 136.352Z" fill="#584848"/>
<path d="M73.3144 193.91C71.2267 191.75 70.3185 189.78 70.5381 187.889C70.662 186.828 71.1386 185.893 71.5997 184.988C71.9703 184.261 72.3532 183.509 72.5367 182.714C72.7188 181.918 72.7059 181.102 72.6915 180.238C72.683 179.714 72.6739 179.171 72.7136 178.637C72.8743 176.472 73.8394 174.44 75.3624 173.06C76.8851 171.68 78.8858 171.03 80.8422 171.271L80.7942 171.743C78.9781 171.516 77.0487 172.147 75.6365 173.427C74.2247 174.706 73.2926 176.668 73.1435 178.675C73.1059 179.186 73.1147 179.717 73.1228 180.23C73.1368 181.087 73.1515 181.973 72.9543 182.83C72.7574 183.687 72.3602 184.466 71.9759 185.221C71.5144 186.125 71.0789 186.981 70.9663 187.949C70.7656 189.679 71.6299 191.516 73.6102 193.564L73.3144 193.91Z" fill="#AB93D8"/>
<path d="M99.1273 166.434C98.0261 166.434 97.0269 166.069 96.3272 165.399C95.8317 164.924 95.4863 164.312 95.1523 163.72C94.867 163.215 94.5974 162.737 94.2423 162.336C93.6808 161.701 92.9565 161.31 92.19 160.896C91.5475 160.55 90.8839 160.192 90.3206 159.675C89.0453 158.505 88.3329 156.549 88.3666 154.309C88.3961 152.336 88.9516 150.451 89.4886 148.628L89.8991 148.774C89.3717 150.564 88.826 152.415 88.7976 154.317C88.7667 156.413 89.4222 158.232 90.5972 159.31C91.1204 159.79 91.7605 160.136 92.3795 160.47C93.1456 160.883 93.9377 161.311 94.5515 162.004C94.9389 162.443 95.2333 162.964 95.5183 163.469C95.8503 164.057 96.1644 164.612 96.61 165.041C97.3386 165.738 98.444 166.062 99.647 165.931C100.757 165.809 101.823 165.351 102.854 164.909L103.011 165.351C101.953 165.805 100.858 166.275 99.6905 166.403C99.5003 166.424 99.3122 166.434 99.1273 166.434Z" fill="#AB93D8"/>
<path d="M107.958 197.911L107.417 196.364C106.723 194.384 106.006 192.338 104.913 190.561L104.852 190.463C104.626 190.095 104.391 189.716 104.312 189.255C104.222 188.724 104.361 188.204 104.498 187.76C105.267 185.27 107.033 182.477 109.684 182.1L109.739 182.572C107.285 182.92 105.634 185.559 104.907 187.912C104.787 188.3 104.665 188.749 104.736 189.167C104.798 189.531 104.998 189.853 105.209 190.195L105.27 190.294C106.39 192.116 107.117 194.189 107.819 196.193L108.361 197.74L107.958 197.911Z" fill="#AB93D8"/>
<path d="M64.0357 157.289C63.5985 158.619 63.2254 159.821 63.0949 161.068C62.8499 163.398 63.0401 166.474 64.3102 168.119C64.8913 168.873 65.6641 169.28 66.606 169.329C67.7381 169.387 68.9484 168.83 70.2999 167.622C72.0212 166.084 73.0101 164.44 73.24 162.735C73.4642 161.071 72.955 159.403 72.4269 157.99C71.9398 156.684 71.2951 155.212 70.21 154.196C69.2822 153.327 67.7746 152.736 66.4986 153.377C65.1998 154.029 64.5698 155.667 64.0357 157.289ZM66.7705 169.809C66.7084 169.809 66.6474 169.807 66.5856 169.804C65.5191 169.748 64.6428 169.285 63.981 168.427C62.2712 166.21 62.5422 162.192 62.6664 161.013C62.8026 159.716 63.1833 158.485 63.6308 157.127C64.1954 155.41 64.8688 153.673 66.3196 152.945C67.7689 152.217 69.4573 152.868 70.4897 153.834C71.645 154.916 72.3191 156.451 72.8266 157.809C73.3761 159.282 73.906 161.027 73.6664 162.805C73.4207 164.631 72.3791 166.376 70.5722 167.991C69.2053 169.212 67.9595 169.809 66.7705 169.809Z" fill="#AB93D8"/>
<path d="M51.1885 184.235L50.8432 183.951C52.1528 182.02 53.5074 179.771 52.9993 177.51C52.8793 176.976 52.6512 176.454 52.4308 175.948C52.1128 175.22 51.7844 174.468 51.745 173.631C51.7082 172.837 51.9367 172.087 52.1581 171.363C52.315 170.848 52.4778 170.315 52.5353 169.786C52.6385 168.837 52.3543 167.82 51.7563 166.998C51.1576 166.176 50.3192 165.65 49.4556 165.554L49.4984 165.082C50.4764 165.19 51.4222 165.78 52.0928 166.701C52.7631 167.622 53.0807 168.767 52.9635 169.843C52.9007 170.421 52.7308 170.976 52.5666 171.514C52.3487 172.228 52.1427 172.903 52.1756 173.606C52.2107 174.348 52.5062 175.026 52.8196 175.742C53.0495 176.269 53.2874 176.814 53.4179 177.396C53.971 179.858 52.5575 182.217 51.1885 184.235Z" fill="#AB93D8"/>
<path d="M57.4023 196.69C57.391 195.73 57.3798 194.739 57.6406 193.784C57.9371 192.697 58.5874 191.849 59.3798 191.517C59.6103 191.42 59.8465 191.366 60.0764 191.314C60.2778 191.269 60.4684 191.225 60.6501 191.156C61.006 191.02 61.3225 190.786 61.6577 190.538C61.8121 190.423 61.9665 190.309 62.1258 190.204C64.4655 188.658 67.7874 189.415 69.3796 191.856L69.029 192.133C67.5632 189.885 64.5041 189.187 62.3469 190.611C62.195 190.712 62.0465 190.822 61.8981 190.932C61.5552 191.186 61.2004 191.448 60.7919 191.604C60.5831 191.684 60.3698 191.733 60.1634 191.779C59.9413 191.83 59.7307 191.878 59.5335 191.961C58.865 192.241 58.3119 192.974 58.0533 193.921C57.8122 194.806 57.823 195.761 57.8336 196.684L57.4023 196.69Z" fill="#AB93D8"/>
<path d="M41.1136 182.419L40.8599 182.035C42.1419 181.008 42.689 179.003 42.1324 177.369C42.0447 177.113 41.9348 176.868 41.8183 176.609C41.6558 176.247 41.4877 175.873 41.3884 175.466C41.1157 174.351 41.3965 173.228 41.6681 172.141C41.9201 171.133 42.158 170.181 41.9938 169.237C41.745 167.811 40.6532 166.777 39.459 165.758L39.7236 165.382C40.9852 166.46 42.1408 167.559 42.4173 169.148C42.6009 170.201 42.338 171.251 42.0843 172.267C41.8158 173.34 41.5628 174.353 41.8046 175.342C41.8934 175.704 42.045 176.041 42.205 176.399C42.3208 176.657 42.4412 176.923 42.536 177.202C43.1585 179.029 42.5472 181.272 41.1136 182.419Z" fill="#AB93D8"/>
<path d="M32.2971 183.232C32.1715 180.887 30.5996 178.684 28.5596 177.993C28.314 177.91 28.0623 177.846 27.8109 177.782C27.3197 177.657 26.8121 177.527 26.3478 177.259C26.1164 177.125 25.9042 176.961 25.6993 176.803C25.5329 176.675 25.3669 176.546 25.1908 176.435C24.3053 175.878 23.1792 175.823 22.2522 176.292C21.3251 176.761 20.6298 177.738 20.4379 178.841L20.0142 178.752C20.2319 177.5 21.0205 176.392 22.0718 175.86C23.1235 175.327 24.4003 175.39 25.4053 176.023C25.5955 176.143 25.7741 176.281 25.9468 176.414C26.15 176.571 26.3414 176.719 26.5484 176.838C26.9636 177.078 27.4224 177.195 27.9081 177.319C28.1695 177.386 28.4312 177.453 28.6865 177.539C30.8921 178.286 32.592 180.668 32.7277 183.204L32.2971 183.232Z" fill="#AB93D8"/>
<path d="M16.7581 148.358C16.2812 150.186 16.745 152.254 17.9391 153.628C18.4027 154.162 18.6152 154.869 18.8205 155.553C19.041 156.287 19.2495 156.98 19.7438 157.419C20.718 158.285 22.2685 157.634 23.1462 156.534C24.1655 155.255 24.7488 153.401 24.8795 151.024C24.9329 150.05 24.9435 148.611 24.4214 147.369C23.8699 146.057 22.7244 145.077 21.1962 144.609C20.214 144.308 19.1428 144.787 18.0154 146.033C17.417 146.695 16.9823 147.499 16.7581 148.358ZM20.811 158.289C20.3291 158.289 19.8652 158.138 19.4729 157.789C18.8797 157.262 18.6415 156.469 18.4109 155.702C18.212 155.039 18.024 154.412 17.6272 153.957C16.3291 152.463 15.8253 150.214 16.3436 148.226C16.5877 147.291 17.06 146.417 17.7096 145.699C18.9556 144.321 20.167 143.8 21.312 144.151C22.9639 144.658 24.2074 145.73 24.8127 147.17C25.376 148.509 25.3662 150.027 25.3101 151.053C25.1737 153.538 24.5546 155.487 23.47 156.847C22.7988 157.689 21.77 158.289 20.811 158.289Z" fill="#AB93D8"/>
<path d="M65.3509 125.059C65.3509 126.296 64.4392 127.3 63.3148 127.3C62.1904 127.3 61.2791 126.296 61.2791 125.059C61.2791 123.821 62.1904 122.817 63.3148 122.817C64.4392 122.817 65.3509 123.821 65.3509 125.059Z" fill="#E45A53"/>
<path d="M23.3012 118.521L13.8872 113.506L29.7743 77.3571L39.1884 82.3721L23.3012 118.521Z" fill="#9D83C6"/>
<path d="M29.7739 77.3571L37.9026 72.079L39.188 82.3721L29.7739 77.3571Z" fill="#FFCF9F"/>
<path d="M29.7739 77.3571C29.7739 77.3571 29.8179 79.6347 32.0403 78.5641C32.0403 78.5641 32.7423 83.1212 36.9217 81.1647C36.9217 81.1647 37.4067 84.1173 39.188 82.3721L34.6395 77.9652L29.7739 77.3571Z" fill="#FFCF9F"/>
<path d="M23.2814 97.8509C23.2481 97.7725 23.246 97.6786 23.2831 97.5944L30.5301 81.1048C30.5955 80.9564 30.7576 80.8942 30.8925 80.9661C31.0275 81.038 31.0839 81.2165 31.0186 81.3652L23.7715 97.8544C23.7061 98.0031 23.5439 98.0653 23.409 97.9935C23.3506 97.9622 23.3069 97.9112 23.2814 97.8509Z" fill="#1B0202"/>
<path d="M18.8937 107.835C18.8604 107.756 18.8584 107.663 18.8952 107.579L21.7876 100.998C21.8528 100.849 22.0148 100.787 22.1499 100.859C22.2849 100.931 22.3409 101.11 22.2758 101.258L19.3838 107.839C19.3184 107.987 19.1562 108.049 19.0214 107.977C18.9629 107.947 18.9192 107.896 18.8937 107.835Z" fill="#1B0202"/>
<path d="M21.0337 117.232C21.0006 117.153 20.9985 117.06 21.0354 116.976L34.2122 86.9934C34.2776 86.8451 34.4398 86.7829 34.5747 86.8547C34.7097 86.9266 34.766 87.1051 34.7008 87.2534L21.5238 117.236C21.4586 117.384 21.2963 117.446 21.1615 117.374C21.103 117.343 21.0594 117.292 21.0337 117.232Z" fill="#1B0202"/>
<path d="M37.9028 72.079L35.8242 73.4359L38.2263 74.7155L37.9028 72.079Z" fill="#1C0102"/>
<path d="M22.3452 120.696L12.9312 115.681L13.8873 113.506L23.3013 118.521L22.3452 120.696Z" fill="#FFB850"/>
<path d="M17.5145 123.808L13.7124 121.782C12.1626 120.957 11.5142 118.904 12.2641 117.198L12.9307 115.681L22.3447 120.696L21.678 122.213C20.9281 123.919 19.0641 124.633 17.5145 123.808Z" fill="#F45A56"/>
<path d="M22.8524 120.907C22.8524 120.907 23.6201 117.322 18.3331 117.322C14.7266 117.322 15.6889 120.566 17.2433 121.448C18.7974 122.329 18.4016 123.132 17.4383 123.839C16.4752 124.546 17.8941 125.278 17.8941 125.278C17.8941 125.278 21.6746 125.246 22.8524 120.907Z" fill="#FF926C"/>
<path d="M18.1083 119.707C17.1427 119.707 16.0229 118.791 15.966 118.744C15.8709 118.665 15.8517 118.516 15.9229 118.411C15.9945 118.306 16.1299 118.286 16.2251 118.364C16.6363 118.704 17.8465 119.507 18.4986 119.141C18.8523 118.943 19.0259 118.402 19.0149 117.535C19.0131 117.404 19.1083 117.296 19.2276 117.294C19.3466 117.283 19.4446 117.397 19.4463 117.528C19.4597 118.592 19.2066 119.278 18.6935 119.565C18.5134 119.665 18.3145 119.707 18.1083 119.707Z" fill="#1C0102"/>
<path d="M4.0626 85.823C3.30602 85.823 2.58483 86.3214 2.09763 87.1962C1.56657 88.1493 1.33066 89.5986 2.00017 90.6889C2.50189 91.5057 3.33412 92.0531 4.34359 92.2301C5.56912 92.4449 6.85784 92.096 7.79343 91.297C7.66952 90.3311 7.41604 89.3795 7.01054 88.4576C6.69403 87.739 5.79613 86.0448 4.29849 85.8393C4.21968 85.8284 4.14086 85.823 4.0626 85.823ZM3.3747 105.565L2.74275 104.918C5.56294 101.577 8.01729 96.8889 7.87885 92.3843C6.81479 93.0994 5.48029 93.3923 4.20788 93.1682C2.96002 92.9495 1.92217 92.2579 1.28528 91.2209C0.519535 89.9733 0.550379 88.1567 1.36205 86.6993C2.08187 85.4073 3.21664 84.7312 4.40542 84.8965C5.75557 85.082 6.98794 86.2287 7.78697 88.0435C8.14068 88.8471 8.38879 89.6697 8.54397 90.5027C9.66776 89.0465 10.2505 86.872 10.0945 84.5592C10.0228 83.4937 9.8128 82.4099 9.61031 81.3621C9.34027 79.9669 9.06089 78.5239 9.08405 77.0507C9.14726 73.058 11.6826 69.2176 15.1124 67.919C16.453 67.4113 17.8711 67.2688 19.2426 67.1304C20.6913 66.9848 22.0591 66.8469 23.3493 66.3179C27.0377 64.8053 28.9153 60.7663 30.903 56.49C32.8857 52.2257 34.9352 47.8166 38.9642 46.1997C42.3718 44.8327 45.9674 46.0073 49.4441 47.1436C52.9008 48.2733 56.1655 49.3396 59.2878 48.1612L59.5671 49.0595C56.1859 50.3364 52.6341 49.1762 49.1988 48.0542C45.7032 46.9121 42.4013 45.8318 39.2601 47.0922C35.549 48.5812 33.6655 52.633 31.6714 56.9228C29.6959 61.1724 27.653 65.5668 23.6505 67.2081C22.2524 67.7815 20.7623 67.9314 19.3211 68.0767C17.94 68.2157 16.6353 68.3471 15.3932 68.8173C12.2943 69.9903 10.0037 73.4598 9.94686 77.0673C9.92549 78.4319 10.1821 79.7591 10.4541 81.1643C10.663 82.243 10.8789 83.3588 10.9547 84.4885C11.1518 87.4102 10.3155 90.058 8.70298 91.6927C9.11778 96.6879 6.46126 101.908 3.3747 105.565Z" fill="#FFB850"/>
<path d="M137.102 236.663C137.088 236.663 137.073 236.662 137.059 236.659C136.943 236.633 136.867 236.507 136.89 236.379C138.317 228.577 140.636 220.988 143.783 213.821C143.835 213.703 143.964 213.655 144.071 213.711C144.178 213.768 144.223 213.91 144.171 214.028C141.04 221.159 138.733 228.711 137.313 236.473C137.292 236.586 137.202 236.663 137.102 236.663Z" fill="#1B0102"/>
<path d="M136.496 240.038C136.391 240.038 136.299 239.953 136.283 239.835C134.329 225.084 134.163 210.101 135.79 195.301C135.804 195.171 135.916 195.081 136.03 195.094C136.148 195.11 136.232 195.229 136.218 195.358C134.596 210.116 134.762 225.058 136.71 239.766C136.727 239.897 136.645 240.017 136.528 240.036C136.517 240.037 136.507 240.038 136.496 240.038Z" fill="#1B0102"/>
<path d="M134.416 239.18C134.341 239.18 134.269 239.137 134.229 239.062C133.354 237.407 132.79 235.55 132.354 233.951C129.99 225.284 129.215 216.153 128.467 207.321C128.456 207.191 128.543 207.075 128.661 207.062C128.786 207.052 128.885 207.146 128.896 207.277C129.643 216.085 130.416 225.193 132.767 233.815C133.196 235.386 133.749 237.211 134.602 238.823C134.662 238.937 134.627 239.082 134.524 239.148C134.49 239.17 134.453 239.18 134.416 239.18Z" fill="#1B0102"/>
<path d="M137.725 233.478H126.786L131.652 256.735H141.658L146.524 233.478H137.725Z" fill="#F45A56"/>
<path d="M143.171 248.515C143.127 248.515 143.084 248.501 143.046 248.472C137.745 244.337 132.722 239.682 128.116 234.637C128.032 234.544 128.032 234.394 128.116 234.301C128.2 234.207 128.336 234.208 128.421 234.3C133.01 239.327 138.014 243.964 143.295 248.084C143.393 248.16 143.415 248.308 143.347 248.415C143.305 248.48 143.238 248.515 143.171 248.515Z" fill="white"/>
<path d="M143.058 245.144C143.015 245.144 142.971 245.13 142.934 245.1C141.136 243.703 139.397 242.172 137.764 240.55C137.676 240.462 137.669 240.312 137.749 240.215C137.828 240.118 137.965 240.11 138.054 240.197C139.673 241.807 141.399 243.326 143.182 244.712C143.279 244.788 143.303 244.936 143.234 245.043C143.192 245.109 143.125 245.144 143.058 245.144Z" fill="white"/>
<path d="M141.228 251.59C141.183 251.59 141.137 251.575 141.099 251.543C137.636 248.692 134.312 245.559 131.221 242.232C131.135 242.14 131.134 241.99 131.217 241.896C131.301 241.802 131.437 241.801 131.522 241.892C134.6 245.205 137.909 248.324 141.357 251.163C141.452 251.241 141.472 251.39 141.4 251.495C141.358 251.557 141.293 251.59 141.228 251.59Z" fill="white"/>
<path d="M130.251 240.848C130.196 240.848 130.141 240.825 130.099 240.779L129.489 240.107C129.404 240.015 129.404 239.864 129.489 239.772C129.573 239.678 129.709 239.678 129.794 239.772L130.404 240.443C130.488 240.536 130.488 240.686 130.404 240.779C130.361 240.825 130.306 240.848 130.251 240.848Z" fill="white"/>
<path d="M136.837 239.371C136.788 239.371 136.739 239.353 136.699 239.316L135.967 238.645C135.876 238.561 135.864 238.411 135.94 238.31C136.017 238.21 136.152 238.196 136.244 238.279L136.976 238.951C137.067 239.035 137.079 239.185 137.003 239.286C136.961 239.341 136.899 239.371 136.837 239.371Z" fill="white"/>
<path d="M138.82 213.905C137.41 210.508 136.893 206.585 137.803 202.988C138.116 201.752 138.615 200.53 139.483 199.673C140.349 198.817 141.642 198.399 142.718 198.892C143.517 199.258 144.094 200.067 144.427 200.947C144.758 201.827 144.876 202.784 144.991 203.729C145.116 202.131 145.894 200.449 147.061 199.49C148.228 198.531 149.774 198.152 151.201 198.476C152.03 198.664 152.844 199.106 153.337 199.865C153.635 200.324 153.8 200.873 153.905 201.425C154.307 203.543 153.847 205.84 152.672 207.575C153.979 206.65 155.767 206.04 157.032 207.033C158.28 208.014 158.351 210.143 157.591 211.609C156.831 213.075 155.474 214.025 154.155 214.885C151.854 216.385 149.428 217.823 146.772 218.168C144.116 218.514 139.931 216.583 138.82 213.905Z" fill="#FFB850"/>
<path d="M142.79 216.133C142.677 216.133 142.581 216.036 142.575 215.91C142.264 210.141 143.664 204.293 146.517 199.442C146.583 199.332 146.716 199.302 146.815 199.371C146.916 199.443 146.944 199.59 146.879 199.7C144.076 204.467 142.7 210.214 143.005 215.882C143.013 216.013 142.922 216.125 142.802 216.133C142.798 216.133 142.794 216.133 142.79 216.133Z" fill="#1B0102"/>
<path d="M151.967 209.104C151.923 209.104 151.879 209.089 151.841 209.059C151.744 208.983 151.722 208.834 151.791 208.728C152.927 206.991 153.624 204.857 153.754 202.722C153.762 202.591 153.868 202.497 153.983 202.501C154.102 202.509 154.192 202.622 154.184 202.753C154.049 204.977 153.324 207.197 152.142 209.005C152.1 209.07 152.034 209.104 151.967 209.104Z" fill="#1B0102"/>
<path d="M145.555 215.48C145.479 215.48 145.406 215.436 145.367 215.359C145.308 215.244 145.345 215.1 145.449 215.035C147.297 213.893 148.963 212.443 150.4 210.725C150.481 210.629 150.618 210.623 150.705 210.712C150.793 210.8 150.798 210.95 150.718 211.047C149.249 212.802 147.548 214.283 145.661 215.449C145.627 215.47 145.591 215.48 145.555 215.48Z" fill="#1B0102"/>
<path d="M140.058 214.218C139.979 214.218 139.903 214.17 139.865 214.086C139.114 212.426 138.693 210.568 138.647 208.713C138.644 208.581 138.738 208.472 138.857 208.468C138.859 208.468 138.861 208.468 138.863 208.468C138.98 208.468 139.075 208.57 139.079 208.699C139.123 210.486 139.528 212.276 140.251 213.874C140.304 213.992 140.261 214.134 140.154 214.193C140.123 214.21 140.091 214.218 140.058 214.218Z" fill="#1B0102"/>
<path d="M151.289 215.09C151.223 215.09 151.158 215.057 151.116 214.994C151.044 214.889 151.065 214.74 151.161 214.662L152.729 213.382C152.826 213.304 152.96 213.326 153.031 213.431C153.102 213.536 153.082 213.685 152.986 213.764L151.418 215.044C151.379 215.075 151.334 215.09 151.289 215.09Z" fill="#1B0102"/>
<path d="M131.986 194.224C130.902 191.572 130.516 188.514 131.24 185.717C131.489 184.756 131.883 183.807 132.562 183.144C133.241 182.482 134.25 182.163 135.085 182.552C135.706 182.842 136.152 183.475 136.407 184.162C136.662 184.849 136.75 185.595 136.835 186.331C136.939 185.088 137.552 183.782 138.465 183.041C139.378 182.3 140.584 182.013 141.693 182.272C142.338 182.423 142.971 182.771 143.351 183.365C143.581 183.724 143.707 184.153 143.787 184.583C144.091 186.234 143.723 188.022 142.801 189.367C143.823 188.653 145.218 188.187 146.198 188.967C147.166 189.737 147.213 191.396 146.614 192.534C146.016 193.671 144.956 194.404 143.925 195.067C142.126 196.224 140.231 197.33 138.161 197.586C136.09 197.842 132.84 196.316 131.986 194.224Z" fill="#F45A56"/>
<path d="M135.069 196.033C134.955 196.033 134.859 195.935 134.854 195.808C134.635 191.303 135.754 186.745 138.002 182.972C138.067 182.861 138.201 182.831 138.301 182.903C138.4 182.975 138.428 183.123 138.363 183.232C136.165 186.921 135.072 191.378 135.284 195.783C135.291 195.914 135.199 196.026 135.08 196.033C135.076 196.033 135.073 196.033 135.069 196.033Z" fill="#1B0102"/>
<path d="M142.246 190.606C142.202 190.606 142.157 190.591 142.119 190.561C142.023 190.483 142.002 190.335 142.072 190.229C142.958 188.889 143.507 187.241 143.616 185.588C143.625 185.457 143.731 185.359 143.847 185.369C143.966 185.378 144.055 185.492 144.047 185.622C143.932 187.363 143.354 189.098 142.42 190.508C142.379 190.572 142.313 190.606 142.246 190.606Z" fill="#1B0102"/>
<path d="M137.225 195.539C137.15 195.539 137.076 195.495 137.036 195.416C136.979 195.302 137.017 195.157 137.121 195.093C138.561 194.216 139.86 193.099 140.983 191.772C141.064 191.676 141.2 191.671 141.288 191.761C141.375 191.849 141.379 192 141.299 192.096C140.145 193.459 138.809 194.607 137.33 195.509C137.297 195.529 137.26 195.539 137.225 195.539Z" fill="#1B0102"/>
<path d="M132.95 194.527C132.87 194.527 132.794 194.478 132.756 194.394C132.175 193.089 131.853 191.632 131.826 190.181C131.824 190.049 131.918 189.941 132.037 189.938C132.039 189.938 132.04 189.938 132.042 189.938C132.159 189.938 132.255 190.041 132.257 190.171C132.283 191.554 132.59 192.942 133.144 194.185C133.196 194.303 133.152 194.445 133.045 194.503C133.014 194.52 132.982 194.527 132.95 194.527Z" fill="#1B0102"/>
<path d="M141.692 195.264C141.626 195.264 141.561 195.231 141.519 195.167C141.448 195.062 141.469 194.913 141.565 194.836L142.793 193.847C142.888 193.769 143.024 193.792 143.094 193.898C143.164 194.004 143.144 194.152 143.047 194.23L141.819 195.219C141.782 195.25 141.737 195.264 141.692 195.264Z" fill="#1B0102"/>
<path d="M125.432 209.481C123.795 208.19 122.476 206.337 121.98 204.188C121.809 203.45 121.739 202.658 121.956 201.935C122.173 201.211 122.727 200.576 123.413 200.48C123.923 200.409 124.437 200.638 124.844 200.983C125.251 201.328 125.569 201.783 125.881 202.233C125.517 201.369 125.467 200.25 125.811 199.376C126.155 198.502 126.849 197.805 127.671 197.508C128.149 197.335 128.687 197.298 129.144 197.529C129.421 197.668 129.653 197.898 129.856 198.148C130.631 199.108 131.01 200.441 130.87 201.717C131.295 200.815 132.052 199.919 132.97 200.02C133.876 200.12 134.484 201.193 134.486 202.195C134.487 203.198 134.043 204.128 133.595 205C132.812 206.521 131.947 208.05 130.672 209.092C129.396 210.134 126.723 210.5 125.432 209.481Z" fill="#9D83C6"/>
<path d="M128.011 209.454C127.941 209.454 127.872 209.416 127.831 209.346C126.113 206.458 125.261 202.97 125.43 199.523C125.437 199.392 125.528 199.293 125.657 199.298C125.776 199.305 125.867 199.417 125.86 199.548C125.696 202.895 126.523 206.282 128.191 209.086C128.256 209.196 128.229 209.343 128.129 209.415C128.092 209.441 128.052 209.454 128.011 209.454Z" fill="#1B0102"/>
<path d="M130.853 202.848C130.846 202.848 130.838 202.848 130.83 202.847C130.712 202.834 130.626 202.717 130.638 202.586C130.756 201.34 130.545 200.034 130.046 198.907C129.994 198.789 130.038 198.647 130.146 198.59C130.251 198.532 130.382 198.581 130.434 198.699C130.968 199.904 131.193 201.302 131.067 202.635C131.056 202.758 130.962 202.848 130.853 202.848Z" fill="#1B0102"/>
<path d="M129.26 208.218C129.222 208.218 129.185 208.207 129.149 208.184C129.048 208.117 129.014 207.971 129.075 207.859C129.716 206.678 130.182 205.399 130.459 204.057C130.485 203.929 130.599 203.848 130.717 203.878C130.833 203.907 130.906 204.034 130.88 204.162C130.592 205.553 130.11 206.878 129.445 208.102C129.405 208.177 129.334 208.218 129.26 208.218Z" fill="#1B0102"/>
<path d="M126.09 209.355C126.049 209.355 126.007 209.342 125.97 209.315C125.128 208.696 124.403 207.866 123.876 206.913C123.813 206.801 123.846 206.654 123.947 206.586C124.049 206.518 124.182 206.553 124.243 206.665C124.739 207.56 125.419 208.339 126.21 208.92C126.309 208.993 126.336 209.14 126.27 209.249C126.228 209.318 126.159 209.355 126.09 209.355Z" fill="#1B0102"/>
<path d="M132.109 206.153C132.08 206.153 132.051 206.146 132.023 206.133C131.914 206.08 131.864 205.94 131.912 205.82L132.377 204.651C132.425 204.531 132.554 204.476 132.66 204.529C132.77 204.581 132.819 204.721 132.772 204.841L132.307 206.01C132.272 206.1 132.193 206.153 132.109 206.153Z" fill="#1B0102"/>
<path d="M223.607 256.274H208.339C205.171 256.274 202.513 253.897 202.177 250.762L197.809 210.1H234.138L229.77 250.762C229.433 253.897 226.775 256.274 223.607 256.274Z" fill="#584848"/>
<path d="M228.164 232.343C228.164 239.659 222.776 245.591 216.131 245.591C209.485 245.591 204.098 239.659 204.098 232.343C204.098 225.026 209.485 219.095 216.131 219.095C222.776 219.095 228.164 225.026 228.164 232.343Z" fill="#F45A56"/>
<path d="M216.448 237.127C216.291 236.857 216.135 236.587 215.982 236.316C215.132 234.81 214.178 232.812 214.354 230.716C214.421 229.908 214.642 229.163 214.903 228.344C215.352 226.933 215.837 225.519 216.344 224.129C216.17 224.104 215.994 224.09 215.816 224.09C212.82 224.09 210.391 227.784 210.391 232.343C210.391 236.901 212.82 240.596 215.816 240.596C216.557 240.596 217.265 240.369 217.909 239.958C217.52 238.972 216.978 238.039 216.448 237.127Z" fill="#FFB850"/>
<path d="M217.688 224.309C217.169 225.726 216.673 227.167 216.215 228.606C215.971 229.376 215.763 230.071 215.703 230.789C215.547 232.649 216.435 234.496 217.226 235.897C217.377 236.165 217.532 236.431 217.688 236.699C218.209 237.597 218.742 238.516 219.146 239.5C220.774 238.076 221.871 235.405 221.871 232.343C221.871 228.435 220.085 225.164 217.688 224.309Z" fill="#FFB850"/>
<path d="M208.098 224.847L208.289 225.02C206.719 227.13 205.774 229.681 205.697 232.019C205.527 237.15 208.771 242.121 213.242 243.582C215.681 244.378 218.263 244.124 220.328 242.884C221.907 241.935 223.317 240.342 224.519 238.149C225.644 236.095 226.188 234.242 226.182 232.483C226.173 229.893 224.958 227.223 222.572 224.55C221.204 223.018 219.958 222.002 218.651 221.355C214.536 219.314 210.498 222.054 208.289 225.02L208.098 224.847ZM216.073 244.585C215.086 244.585 214.082 244.426 213.101 244.106C208.42 242.576 205.024 237.371 205.201 231.999C205.282 229.544 206.268 226.874 207.906 224.674C210.225 221.559 214.484 218.69 218.855 220.857C220.22 221.534 221.513 222.585 222.926 224.167C225.406 226.946 226.668 229.744 226.678 232.481C226.684 234.343 226.117 236.289 224.943 238.431C223.696 240.708 222.223 242.367 220.566 243.364C219.22 244.172 217.668 244.585 216.073 244.585Z" fill="white"/>
<path d="M236.092 214.088H195.854V210.715C195.854 209.216 196.957 208.002 198.318 208.002H233.628C234.989 208.002 236.092 209.216 236.092 210.715V214.088Z" fill="#FFB850"/>
<path d="M230.529 208.002H201.417V207.549C201.417 204.811 203.433 202.591 205.921 202.591H226.026C228.513 202.591 230.529 204.811 230.529 207.549V208.002Z" fill="#FFB850"/>
<path d="M220.542 208.275H201.417C201.28 208.275 201.169 208.153 201.169 208.002C201.169 207.851 201.28 207.729 201.417 207.729H220.542C220.679 207.729 220.791 207.851 220.791 208.002C220.791 208.153 220.679 208.275 220.542 208.275Z" fill="#1B0202"/>
<path d="M230.529 208.275H223.971C223.834 208.275 223.723 208.153 223.723 208.002C223.723 207.851 223.834 207.729 223.971 207.729H230.529C230.666 207.729 230.777 207.851 230.777 208.002C230.777 208.153 230.666 208.275 230.529 208.275Z" fill="#1B0202"/>
<path d="M327.27 148.789L316.512 158.431L285.967 117.123L296.724 107.481L327.27 148.789Z" fill="#F45A56"/>
<path d="M285.967 117.123L284.767 103.405L296.724 107.481L285.967 117.123Z" fill="#FFCF9F"/>
<path d="M285.967 117.123C285.967 117.123 288.477 118.343 288.556 114.801C288.556 114.801 293.925 116.43 294.135 109.802C294.135 109.802 297.63 110.817 296.724 107.481L289.361 111.026L285.967 117.123Z" fill="#FFCF9F"/>
<path d="M304.695 137.294C304.57 137.294 304.445 137.234 304.36 137.118L290.427 118.275C290.276 118.072 290.304 117.773 290.489 117.607C290.673 117.441 290.946 117.473 291.095 117.676L305.03 136.519C305.18 136.722 305.152 137.021 304.967 137.187C304.887 137.259 304.791 137.294 304.695 137.294Z" fill="#1B0202"/>
<path d="M313.132 148.703C313.007 148.703 312.882 148.643 312.797 148.528L307.237 141.008C307.086 140.804 307.114 140.505 307.299 140.34C307.484 140.173 307.756 140.205 307.906 140.408L313.467 147.928C313.617 148.131 313.589 148.431 313.404 148.596C313.324 148.668 313.228 148.703 313.132 148.703Z" fill="#1B0202"/>
<path d="M324.591 151.145C324.465 151.145 324.341 151.085 324.256 150.969L298.921 116.708C298.771 116.504 298.799 116.205 298.983 116.04C299.168 115.874 299.441 115.905 299.59 116.108L324.925 150.37C325.076 150.573 325.047 150.872 324.863 151.038C324.783 151.109 324.687 151.145 324.591 151.145Z" fill="#1B0202"/>
<path d="M284.767 103.405L285.081 106.917L287.827 104.457L284.767 103.405Z" fill="#1C0102"/>
<path d="M329.108 151.274L318.35 160.917L316.512 158.431L327.27 148.789L329.108 151.274Z" fill="#FFB850"/>
<path d="M329.794 159.412L325.449 163.307C323.679 164.894 321.074 164.6 319.633 162.65L318.35 160.917L329.108 151.274L330.39 153.008C331.832 154.958 331.565 157.825 329.794 159.412Z" fill="#F45A56"/>
<path d="M107.275 54.1723L115.029 42.7359L105.319 45.801L107.275 54.1723Z" fill="#D68A25"/>
<path d="M105.319 45.801L131.41 21.5857L115.9 50.5679L105.319 45.801Z" fill="#FFB850"/>
<path d="M131.411 21.5857L105.319 45.801L107.275 54.1723L99.1946 43.0033L131.411 21.5857Z" fill="#1C0102"/>
<path d="M131.41 21.5857L99.1945 43.0033L91.4312 42.7923L131.41 21.5857Z" fill="#FFB850"/>
<path d="M100.087 53.0402C99.9818 53.0699 99.8645 53.0367 99.7852 52.9421C99.6705 52.8053 99.6779 52.5916 99.8031 52.4649L101.444 50.7989C101.568 50.6734 101.762 50.6811 101.877 50.8186C101.992 50.9554 101.984 51.169 101.859 51.2958L100.218 52.9614C100.18 53.0004 100.135 53.0267 100.087 53.0402ZM96.4802 56.7033C96.3745 56.7334 96.2573 56.7002 96.1784 56.6056C96.0636 56.4684 96.071 56.2547 96.1959 56.128L97.9997 54.2963C98.1239 54.1699 98.3187 54.178 98.4331 54.3156C98.5482 54.4527 98.5401 54.6664 98.4155 54.7928L96.6114 56.6249C96.5732 56.6639 96.5279 56.6902 96.4802 56.7033ZM92.8733 60.3668C92.7676 60.3969 92.6511 60.3633 92.5711 60.2687C92.4564 60.1319 92.4641 59.9182 92.5887 59.7915L94.3918 57.9598C94.5174 57.833 94.7101 57.8423 94.8255 57.9791C94.9403 58.1162 94.9329 58.3295 94.8083 58.4562L93.0052 60.288C92.9659 60.3274 92.9207 60.3533 92.8733 60.3668ZM89.266 64.0299C89.1608 64.06 89.0443 64.0268 88.9642 63.9321C88.8495 63.795 88.8569 63.5813 88.9814 63.455L90.7849 61.6232C90.9105 61.4965 91.1032 61.505 91.2186 61.6426C91.3334 61.7793 91.326 61.993 91.2014 62.1197L89.398 63.9511C89.359 63.9905 89.3138 64.0167 89.266 64.0299ZM85.6592 67.693C85.5535 67.7227 85.4363 67.6899 85.3574 67.5949C85.2426 67.4581 85.25 67.2444 85.3753 67.1177L87.1783 65.2863C87.3022 65.16 87.497 65.1685 87.6118 65.3057C87.7265 65.4428 87.7188 65.6561 87.5939 65.7828L85.7904 67.6146C85.7522 67.6536 85.7069 67.6795 85.6592 67.693ZM82.0516 71.3565C81.9459 71.3866 81.8287 71.353 81.7494 71.2584C81.6347 71.1216 81.6431 70.9079 81.7673 70.7812L83.5715 68.9498C83.695 68.8235 83.8901 68.8316 84.0045 68.9692C84.1193 69.1059 84.1112 69.32 83.9866 69.4463L82.1828 71.278C82.1442 71.3171 82.0993 71.343 82.0516 71.3565ZM78.4443 75.02C78.3391 75.0497 78.2219 75.0165 78.1425 74.9218C78.0278 74.7847 78.0359 74.571 78.1604 74.4443L79.9646 72.6129C80.0881 72.4866 80.2832 72.4951 80.3976 72.6323C80.5124 72.7694 80.5043 72.9831 80.3797 73.1094L78.5759 74.9412C78.5373 74.9802 78.4921 75.0064 78.4443 75.02ZM74.8375 78.6831C74.7318 78.7132 74.6146 78.68 74.5357 78.5853C74.4209 78.4482 74.429 78.2345 74.5536 78.1078L76.3574 76.2764C76.4812 76.1501 76.676 76.1578 76.7907 76.2953C76.9055 76.4325 76.8971 76.6466 76.7728 76.7729L74.9687 78.6046C74.9305 78.6437 74.8852 78.6696 74.8375 78.6831Z" fill="#1C0102"/>
</g>
<defs>
<clipPath id="clip0_19_342">
<rect width="335" height="262" fill="white"/>
</clipPath>
</defs>
</svg>
